<svg width="49" height="41" viewBox="0 0 49 41" fill="none" xmlns="http://www.w3.org/2000/svg">
<path d="M40.906 5.61864C39.8407 3.02849 37.2992 1.35608 34.4308 1.35608H34.0235V0H14.4974V1.35598H14.0901C11.2216 1.35598 8.68004 3.02849 7.6149 5.61855L3.1389 16.2719H0.457031V18.9839H2.46333C3.10479 18.9839 3.6606 19.4064 3.81719 20.0101L8.43217 37.5996C8.89792 39.4124 10.5678 40.6796 12.4911 40.6796H36.0298C37.9531 40.6796 39.7159 39.4123 40.1817 37.5982L44.7037 20.0114C44.8604 19.4063 45.416 18.9839 46.0575 18.9839H48.0638V16.2719H45.382L40.906 5.61864ZM17.2868 35.2557H14.4974V21.6959H17.2868V35.2557ZM25.6552 35.2557H22.8657V21.6959H25.6552V35.2557ZM34.0235 35.2557H31.2341V21.6959H34.0235V35.2557ZM10.2056 6.62504C10.8443 5.0718 12.3699 4.06805 14.0901 4.06805H14.4974V5.42394H34.0236V4.06796H34.4309C36.1512 4.06796 37.6766 5.07171 38.3154 6.62495L42.3774 16.2718H6.14352L10.2056 6.62504Z" fill="#E6CBA6"/>
</svg>
