<svg width="83" height="84" viewBox="0 0 83 84" fill="none" xmlns="http://www.w3.org/2000/svg">
<g clip-path="url(#clip0)">
<path d="M41.5 83.38C63.52 83.38 81.38 65.53 81.38 43.5C81.38 21.47 63.52 3.62 41.5 3.62C19.48 3.62 1.62 21.48 1.62 43.5C1.62 65.52 19.48 83.38 41.5 83.38Z" fill="#AAE6FF"/>
<path d="M17.21 40.19C13.76 32.09 19.85 21.78 19.89 21.69C19.94 21.7 31 24.81 34.46 32.93C37.92 41.05 32.17 51.23 32.14 51.28C32.15 51.28 20.67 48.33 17.21 40.19Z" fill="#46C373"/>
<path d="M50.85 51.28C50.82 51.23 45.08 41.05 48.53 32.93C52 24.81 63.06 21.7 63.11 21.69C63.16 21.78 69.24 32.08 65.79 40.19C62.33 48.33 50.85 51.28 50.85 51.28Z" fill="#46C373"/>
<path d="M31.91 43.28C31.82 35.08 41.62 25.94 41.7 25.88C41.74 25.91 50.99 34.96 51.08 43.18C51.17 51.4 41.74 55.68 41.7 55.7C41.7 55.71 32 51.52 31.91 43.28Z" fill="#A5DC69"/>
<path d="M14.49 57C9.13 51.75 10.53 41.68 10.54 41.6C10.58 41.6 20.27 40.46 25.64 45.72C31.01 50.98 29.83 60.84 29.83 60.88C29.83 60.89 19.87 62.28 14.49 57Z" fill="#A5DC69"/>
<path d="M53.17 60.89C53.16 60.84 51.99 50.99 57.36 45.72C62.73 40.46 72.42 41.59 72.46 41.6C72.47 41.68 73.87 51.75 68.51 57C63.13 62.28 53.17 60.89 53.17 60.89Z" fill="#A5DC69"/>
<path d="M74.08 41.48C74.05 41.11 73.9 40.74 73.61 40.45C73.33 40.17 72.97 40.01 72.6 39.98C71.75 39.89 61.92 38.98 56.23 44.56C50.77 49.92 51.38 59.19 51.56 60.91C51.56 60.97 51.57 61.03 51.57 61.09C48.35 66.64 46.53 72.97 46.38 79.48C45.3 79.62 44.22 79.71 43.13 79.76V56.8C45.57 55.48 52.8 50.91 52.71 43.16C52.68 40.34 51.72 37.23 49.84 33.89C49.91 33.79 49.98 33.68 50.03 33.56C50.74 31.89 51.83 30.45 53.09 29.22L55.82 34.96L54.96 37.04C54.62 37.87 55.01 38.82 55.84 39.16C56.04 39.24 56.25 39.28 56.46 39.28C57.1 39.28 57.7 38.9 57.96 38.28L58.94 35.92L65.21 33.69C65.25 34.43 65.25 35.18 65.19 35.92C65.11 36.81 65.78 37.6 66.67 37.67C66.72 37.67 66.76 37.68 66.81 37.68C67.64 37.68 68.35 37.04 68.42 36.2C69.02 29.13 65.2 22.08 64.57 20.97C64.41 20.64 64.13 20.37 63.77 20.22C63.41 20.06 63.02 20.05 62.67 20.15C62.12 20.31 52.13 23.25 47.84 30.73C47.8 30.67 47.75 30.61 47.71 30.54C45.72 27.72 43.69 25.57 42.95 24.84C42.65 24.49 42.21 24.27 41.72 24.27C41.69 24.27 41.66 24.27 41.63 24.27C41.59 24.27 41.55 24.26 41.51 24.26C40.82 24.26 40.23 24.7 40 25.31C38.98 26.32 37.1 28.32 35.26 30.85C31.12 23.46 21.42 20.44 20.42 20.15C20.05 20.03 19.64 20.03 19.25 20.2C18.89 20.36 18.62 20.62 18.46 20.95C17.86 22 14 29.08 14.6 36.19C14.67 37.04 15.38 37.67 16.21 37.67C16.26 37.67 16.3 37.67 16.35 37.66C17.24 37.58 17.9 36.8 17.83 35.91C17.77 35.17 17.76 34.42 17.81 33.68L24.08 35.91L25.06 38.27C25.32 38.89 25.92 39.27 26.56 39.27C26.77 39.27 26.98 39.23 27.18 39.15C28.01 38.81 28.4 37.86 28.06 37.03L27.2 34.95L29.93 29.21C31.19 30.44 32.28 31.89 32.99 33.55C33.05 33.7 33.13 33.83 33.23 33.94C32.81 34.66 32.42 35.41 32.06 36.17C31.94 36.34 31.86 36.53 31.81 36.72C30.89 38.84 30.28 41.08 30.31 43.28C30.39 50.71 37.1 55.09 39.89 56.59V79.74C38.8 79.69 37.72 79.6 36.64 79.46C36.49 72.95 34.67 66.62 31.45 61.07C31.46 61.02 31.46 60.96 31.46 60.91C31.63 59.24 32.27 49.92 26.79 44.54C21.14 39 11.41 39.86 10.44 39.96C10.06 39.99 9.69999 40.14 9.40999 40.43C9.12999 40.71 8.96999 41.07 8.93999 41.44C8.76999 42.84 7.76999 52.65 13.37 58.13C17.3 61.98 23.23 62.65 26.87 62.65C27.53 62.65 28.11 62.63 28.59 62.6C31.47 67.52 33.14 73.12 33.38 78.89C33.39 78.98 33.41 79.07 33.42 79.16C33.45 79.41 33.43 79.67 33.4 79.93C33.38 80.67 33.33 81.4 33.25 82.12C35.93 82.7 38.7 83 41.48 83C41.49 83 41.49 83 41.5 83H41.51C42.61 83 43.72 82.96 44.83 82.87C46.44 82.74 48.03 82.51 49.6 82.19C49.59 81.82 49.58 81.44 49.57 81.06C49.56 80.4 49.64 79.75 49.65 79.1C49.65 79.03 49.67 78.98 49.67 78.91C49.66 78.91 49.64 78.92 49.63 78.92C49.87 73.15 51.54 67.55 54.42 62.63C54.9 62.66 55.48 62.68 56.14 62.68C59.78 62.68 65.71 62.01 69.64 58.16C75.21 52.7 74.26 42.95 74.08 41.48ZM63.19 25.6C63.74 26.93 64.33 28.59 64.73 30.4L60.6 31.87L63.19 25.6ZM60.11 24.57L57.48 30.91L55.66 27.08C57.2 26.02 58.77 25.18 60.11 24.57ZM18.27 30.41C18.67 28.6 19.26 26.93 19.81 25.61L22.41 31.88L18.27 30.41ZM25.51 30.92L22.88 24.58C24.22 25.19 25.79 26.02 27.33 27.1L25.51 30.92ZM21.62 44.89C21.61 44.95 21.61 45.01 21.61 45.08V49.73L14.49 43.18C16.6 43.31 19.26 43.74 21.62 44.89ZM13.15 51.87C12.31 49.62 12.05 47.2 12.01 45.3L19.16 51.87H13.15ZM15.63 55.85C15.39 55.62 15.17 55.37 14.96 55.11H22.67C24.06 56.45 25.33 57.9 26.46 59.43C23.34 59.38 18.61 58.77 15.63 55.85ZM24.85 52.72V47.24C27.23 49.83 28.02 53.56 28.24 56.43C27.2 55.13 26.07 53.88 24.85 52.72ZM39.88 52.84C37.29 51.14 33.59 47.9 33.54 43.27C33.53 42.22 33.71 41.14 34.02 40.06L39.88 45.92V52.84ZM39.88 41.33L35.34 36.79C36.63 34.27 38.39 31.94 39.88 30.19V41.33ZM43.12 29.85C44.73 31.82 46.6 34.46 47.89 37.22L43.12 42V29.85ZM43.12 46.58L49.11 40.59C49.33 41.47 49.46 42.35 49.47 43.2C49.52 48.02 45.67 51.36 43.13 53.03V46.58H43.12ZM68.51 43.18L60.92 50.15V45.54C60.92 45.4 60.9 45.27 60.87 45.14C63.35 43.8 66.25 43.32 68.51 43.18ZM54.75 56.43C54.96 53.76 55.66 50.34 57.67 47.79V53.17C56.64 54.21 55.66 55.3 54.75 56.43ZM67.37 55.85C64.39 58.77 59.66 59.38 56.54 59.43C57.55 58.07 58.66 56.79 59.86 55.58H67.63C67.55 55.67 67.46 55.76 67.37 55.85ZM69.66 52.35C69.58 52.34 69.51 52.33 69.43 52.33H63.34L71 45.29C70.95 47.34 70.65 49.98 69.66 52.35Z" fill="#5A9927"/>
</g>
<defs>
<clipPath id="clip0">
<rect width="83" height="83.38" fill="white"/>
</clipPath>
</defs>
</svg>
