<svg width="83" height="83" viewBox="0 0 83 83" fill="none" xmlns="http://www.w3.org/2000/svg">
<path d="M44.891 5.04239C39.8897 10.0438 41.8534 15.8716 41.8534 15.8716C41.8534 15.8716 47.6813 17.8354 52.6826 12.834C57.684 7.83261 55.7254 2.06136 55.7206 2.00446C55.7206 2.00446 49.8924 0.0409993 44.891 5.04239Z" fill="#D7FA91"/>
<path d="M20.6484 17.2604C27.6233 24.2353 35.7512 21.4967 35.7512 21.4967C35.7512 21.4967 38.49 13.369 31.5149 6.39394C24.5399 -0.581125 16.4911 2.15057 16.4119 2.15738C16.4119 2.15738 13.6735 10.2852 20.6484 17.2604Z" fill="#A5DC69"/>
<path d="M41.5004 81.3797C57.6122 81.3797 70.6734 68.3185 70.6734 52.2067C70.6734 36.0949 57.6122 23.0337 41.5004 23.0337C25.3886 23.0337 12.3275 36.0949 12.3275 52.2067C12.3275 68.3185 25.3886 81.3797 41.5004 81.3797Z" fill="#AFFFF5"/>
<path d="M58.2929 28.3492H56.0212C52.0679 28.3492 48.863 31.5541 48.863 35.5076C48.863 36.976 47.6726 38.1664 46.2042 38.1664C43.6063 38.1664 41.5003 40.2725 41.5003 42.8703C41.5003 46.0331 44.0641 48.597 47.227 48.597H70.451C69.4197 40.2385 64.8531 32.9757 58.2929 28.3492Z" fill="#7DD787"/>
<path d="M13.7769 43.1048H23.0784C24.6662 43.1048 25.9534 41.8177 25.9534 40.2296V40.1116C25.9534 38.5238 27.2405 37.2365 28.8284 37.2365C30.4162 37.2365 31.7034 35.9493 31.7034 34.3613V33.7325C31.7034 32.1446 30.4162 30.8573 28.8284 30.8573H21.6203C18.0591 34.1753 15.3294 38.3728 13.7769 43.1048Z" fill="#7DD787"/>
<path d="M46.9366 48.5973H33.1765C30.1924 48.5973 27.7736 51.0164 27.7736 54.0002V56.3793C27.7736 59.3634 30.1927 61.7823 33.1765 61.7823C35.4656 61.7823 37.3211 63.6379 37.3211 65.9269V80.9004L42.3872 75.2952C43.0916 74.5159 44.0929 74.0713 45.1432 74.0713C47.1949 74.0713 48.8581 72.408 48.8581 70.3564V64.9838C48.8581 63.5556 50.0157 62.398 51.4439 62.398H52.6374C54.0656 62.398 55.2232 61.2403 55.2232 59.8122V56.884C55.2232 55.4558 54.0656 54.2982 52.6374 54.2982C51.2092 54.2982 50.0516 53.1406 50.0516 51.7124C50.0517 49.9919 48.6571 48.5973 46.9366 48.5973Z" fill="#7DD787"/>
<path d="M31.7886 23.6571C33.2622 23.657 34.4691 23.4681 35.2599 23.2976L39.8471 27.8848C39.8575 27.8951 39.8688 27.9039 39.8794 27.9139V33.2292C39.8794 34.1243 40.6051 34.8499 41.5001 34.8499C42.3951 34.8499 43.1209 34.1243 43.1209 33.2292V17.7797C43.5782 17.8364 44.1081 17.8766 44.6946 17.8766C47.1715 17.8766 50.6466 17.163 53.829 13.9803C59.0147 8.79448 57.6374 2.80163 57.2878 1.591C57.1503 1.07047 56.7599 0.64461 56.2379 0.469046C55.9612 0.375671 49.3926 -1.75055 43.7448 3.89668C40.1643 7.47718 39.7093 11.4275 39.879 13.9103V23.3329L37.5518 21.0057C38.1073 18.4328 38.8551 11.4424 32.6608 5.24818C25.647 -1.76628 17.5568 0.135587 16.0065 0.588034L16.0034 0.588844C15.4801 0.725016 15.0523 1.11619 14.876 1.63996C14.751 2.0107 11.9039 10.8079 19.5026 18.4066C23.7939 22.6976 28.4665 23.6573 31.7886 23.6571ZM46.0371 6.18842C49.2366 2.98887 52.7806 3.09521 54.3638 3.35199C54.6368 5.0269 54.7023 8.52262 51.5368 11.688C49.4221 13.8027 47.1572 14.4728 45.4071 14.6101L49.0468 10.9706C49.6796 10.3378 49.6796 9.31145 49.0468 8.67857C48.4141 8.0457 47.3881 8.0457 46.7546 8.67857L43.1194 12.3139C43.2582 10.5626 43.9282 8.29729 46.0371 6.18842ZM17.7408 3.5C19.9793 3.05193 25.4568 2.62769 30.3689 7.53992C34.1585 11.3295 34.771 15.4484 34.6627 18.1159L30.734 14.187C30.1009 13.5542 29.0749 13.5542 28.4417 14.187C27.8089 14.8199 27.8089 15.8462 28.4417 16.4793L32.3589 20.3965C29.6848 20.496 25.5588 19.8787 21.7946 16.1144C16.808 11.1279 17.3211 5.56851 17.7408 3.5Z" fill="#5A9927"/>
</svg>
