<svg width="83" height="83" viewBox="0 0 83 83" fill="none" xmlns="http://www.w3.org/2000/svg">
<path d="M53.5778 61.8479V69.2284C53.5778 75.8978 48.1713 81.3059 41.5 81.3059C34.8294 81.3059 29.4222 75.8976 29.4222 69.2284V61.8479H53.5778Z" fill="#AFFFF5"/>
<path d="M66.5851 39.5331C66.5851 25.6802 55.3541 14.451 41.5 14.451C27.6463 14.451 16.4148 25.6802 16.4148 39.5331C16.4148 48.9851 21.8478 57.4152 29.5672 61.692V66.4405H53.4374V61.8035C61.1565 57.5258 66.5851 48.9851 66.5851 39.5331Z" fill="#F5B955"/>
<path d="M53.5775 61.8486H29.4261V66.4407H53.5775V61.8486Z" fill="#AFFFF5"/>
<path d="M41.5 10.5036C42.4355 10.5036 43.1939 9.74504 43.1939 8.80967V1.69388C43.1939 0.75851 42.4355 0 41.5 0C40.5644 0 39.8061 0.75851 39.8061 1.69388V8.80967C39.8061 9.74504 40.5644 10.5036 41.5 10.5036Z" fill="#5A9927"/>
<path d="M19.9398 19.4344C20.3735 19.4344 20.8071 19.2689 21.138 18.9378C21.7992 18.2763 21.7991 17.2037 21.1375 16.5423L16.1038 11.5109C15.4421 10.8494 14.3696 10.8495 13.7082 11.5114C13.0469 12.173 13.0471 13.2455 13.7087 13.9069L18.7423 18.9386C19.0732 19.2693 19.5065 19.4344 19.9398 19.4344Z" fill="#5A9927"/>
<path d="M69.2917 11.5111C68.6303 10.85 67.5576 10.8499 66.8962 11.5111L61.8643 16.5428C61.2029 17.2042 61.2027 18.2769 61.8643 18.9385C62.1952 19.2692 62.6287 19.4347 63.062 19.4347C63.4955 19.4347 63.9291 19.2692 64.2596 18.9385L69.2915 13.9068C69.9531 13.2452 69.9533 12.1725 69.2917 11.5111Z" fill="#5A9927"/>
<path d="M41.5208 33.8211C42.4563 33.8211 43.2147 33.0626 43.2147 32.1273V30.4679C44.6227 31.1128 45.604 32.5343 45.604 34.1815C45.604 35.1169 46.3623 35.8754 47.2979 35.8754C48.2334 35.8754 48.9917 35.1169 48.9917 34.1815C48.9917 30.6449 46.5206 27.6764 43.2147 26.9068V26.0031C43.2147 25.0677 42.4563 24.3092 41.5208 24.3092C40.5852 24.3092 39.8269 25.0677 39.8269 26.0031V26.9068C36.5212 27.6765 34.05 30.6449 34.05 34.1815C34.05 37.7182 36.5212 40.6868 39.8269 41.4563V49.4491C38.4188 48.8043 37.4377 47.3827 37.4377 45.7354C37.4377 44.8 36.6794 44.0415 35.7438 44.0415C34.8083 44.0415 34.05 44.8 34.05 45.7354C34.05 49.2786 36.5304 52.2517 39.8455 53.0144C39.9614 53.8369 40.6663 54.4706 41.5208 54.4706C42.3753 54.4706 43.0801 53.8371 43.196 53.0144C46.5113 52.2517 48.9917 49.2786 48.9917 45.7352C48.9917 42.1986 46.5206 39.2302 43.2147 38.4607V36.6722C43.2147 35.7368 42.4563 34.9783 41.5208 34.9783C40.5852 34.9783 39.8269 35.7368 39.8269 36.6722V37.8953C38.4188 37.2504 37.4377 35.8289 37.4377 34.1815C37.4377 32.5341 38.4188 31.1128 39.8269 30.4679V32.1273C39.8269 33.0626 40.5852 33.8211 41.5208 33.8211ZM45.604 45.7354C45.604 47.3827 44.6227 48.8043 43.2147 49.4491V42.0218C44.6227 42.6665 45.604 44.088 45.604 45.7354Z" fill="#5A9927"/>
</svg>
