<svg width="83" height="83" viewBox="0 0 83 83" fill="none" xmlns="http://www.w3.org/2000/svg">
<path d="M78.1241 36.6323C76.5806 36.6323 75.2492 37.7163 74.9367 39.228L70.7732 59.3572C70.7523 59.5119 70.721 59.6654 70.6782 59.8169C70.5288 60.3454 70.2459 60.847 69.8221 61.2698L60.5662 69.0084L70.6782 59.8169L70.7732 59.3572C70.9436 58.1012 70.3978 56.7805 69.2107 56.051C68.2077 55.4345 66.9543 55.3907 65.9108 55.9356L57.0796 60.5459C54.4407 61.9235 52.4507 64.2847 51.5401 67.1187L46.9573 81.3783H63.7445L76.1818 67.6755C78.6362 64.9714 80.0929 61.51 80.3108 57.8647L81.3731 40.0815C81.4849 38.2106 79.9979 36.6323 78.1241 36.6323Z" fill="#FFCDAC"/>
<path d="M31.4597 67.1184C30.5488 64.2844 28.5588 61.9233 25.9201 60.5456L17.0889 55.9353C16.0454 55.3904 14.792 55.4342 13.789 56.0507C12.6019 56.7803 12.0562 58.1009 12.2264 59.3569L12.3125 59.773C12.2757 59.6356 12.2454 59.4968 12.2264 59.3569L8.06316 39.2278C7.75046 37.7163 6.41938 36.6321 4.87578 36.6321C3.0018 36.6321 1.51509 38.2104 1.62679 40.081L2.68909 57.8642C2.90696 61.5096 4.36367 64.9709 6.818 67.675L19.2553 81.3778H36.0425L31.4597 67.1184ZM13.1777 61.2696C12.7548 60.8477 12.4738 60.3467 12.3245 59.8196L20.9434 67.6536L13.1777 61.2696Z" fill="#FFCDAC"/>
<path d="M41.5022 61.7159C41.5022 61.7159 73.9214 40.7605 73.9214 21.1173C73.9214 10.3501 65.5141 1.62187 55.1435 1.62187C49.7705 1.62187 44.9251 3.96515 41.5023 7.72057C38.0794 3.96515 33.234 1.6217 27.861 1.6217C17.4902 1.6217 9.08295 10.3501 9.08295 21.1171C9.08295 40.7605 41.5022 61.7159 41.5022 61.7159Z" fill="#FF7373"/>
<path d="M28.9137 35.0963C28.9137 42.0485 34.5496 47.6847 41.5021 47.6847C48.4546 47.6847 54.0905 42.0488 54.0905 35.0963C54.0905 32.0825 53.031 29.3165 51.2645 27.1494H51.2653L41.5467 14.6354L31.7853 27.0839H31.7926C29.9945 29.2604 28.9137 32.0522 28.9137 35.0963Z" fill="#A5DC69"/>
<path d="M51.2654 27.1494L41.547 14.6354L41.5023 14.6924V47.6847C48.4546 47.6847 54.0907 42.0487 54.0907 35.0963C54.0907 32.0825 53.0311 29.3165 51.2646 27.1494H51.2654Z" fill="#78D2FA"/>
<path d="M56.0907 35.1071C56.0907 31.7753 54.9388 28.5197 52.8455 25.934C52.8435 25.9316 52.8417 25.929 52.8398 25.9266L42.8284 13.0355C42.522 12.6411 42.0511 12.4099 41.552 12.4088C41.5507 12.4088 41.5494 12.4088 41.5483 12.4088C41.541 12.4088 41.5338 12.4099 41.5267 12.4101C41.5184 12.4099 41.5105 12.4088 41.5022 12.4088C40.864 12.4088 40.3136 12.7786 40.0492 13.3146L30.2172 25.8528C30.1953 25.8805 30.1745 25.9089 30.1547 25.9378C28.0637 28.5239 26.9137 31.7738 26.9137 35.1068C26.9137 43.151 33.4582 49.6955 41.5024 49.6955C49.5466 49.6955 56.0907 43.1511 56.0907 35.1071ZM50.3021 27.9447C51.9445 29.9597 52.8489 32.5033 52.8489 35.107C52.8489 40.813 48.6144 45.547 43.1231 46.3359V42.3453L49.5872 35.8812C50.2203 35.2482 50.2203 34.2219 49.5872 33.5887C48.954 32.9556 47.9281 32.9556 47.2947 33.5887L43.1231 37.7602V32.985L46.6941 29.414C47.3271 28.781 47.3271 27.7547 46.6941 27.1216C46.061 26.4886 45.0351 26.4886 44.4015 27.1216L43.123 28.4V18.6997L50.2511 27.8782C50.2676 27.9011 50.2846 27.9229 50.3021 27.9447ZM30.1556 35.1071C30.1556 32.4753 31.0771 29.9107 32.7499 27.8857C32.7885 27.839 32.8242 27.7907 32.8566 27.7407L39.8813 18.7826V28.3803L38.6233 27.1224C37.9901 26.4894 36.9641 26.4894 36.3308 27.1224C35.6977 27.7555 35.6977 28.7818 36.3308 29.4148L39.8811 32.9652V37.7404L35.7302 33.5895C35.097 32.9564 34.071 32.9564 33.4376 33.5895C32.8046 34.2225 32.8046 35.2488 33.4376 35.882L39.8811 42.3255V46.3368C34.3898 45.547 30.1556 40.8132 30.1556 35.1071Z" fill="#5A9927"/>
</svg>
