<svg width="83" height="83" viewBox="0 0 83 83" fill="none" xmlns="http://www.w3.org/2000/svg">
<path d="M51.7566 17.7087L40.2295 12.2424C38.369 11.3602 36.1432 11.9723 34.9955 13.6819C33.6986 15.6139 34.2394 18.2341 36.1956 19.4945L44.8689 25.0832C50.7455 28.8701 58.1021 29.5455 64.5703 26.8924L81.3788 19.9975V1.62515H34.6445C29.7514 1.62515 25.023 3.39199 21.3288 6.60062L3.15338 22.3874C0.365743 24.8085 1.57962 29.3764 5.20147 30.0947C6.53483 30.3589 7.91568 29.9979 8.94913 29.1149L27.4549 13.488C29.746 11.5534 32.7827 10.7458 35.7321 11.2866L39.5178 11.9807" fill="#FFE6C3"/>
<path d="M31.2434 65.2913L42.7706 70.7576C44.6311 71.6398 46.8569 71.0277 48.0046 69.3181C49.3015 67.3861 48.7607 64.7659 46.8045 63.5055L38.1312 57.9168C32.2545 54.1299 24.898 53.4545 18.4298 56.1076L1.62146 63.0023V81.3747H48.3557C53.2489 81.3747 57.9773 79.6078 61.6713 76.3992L79.8468 60.6128C82.6345 58.1917 81.4206 53.6238 77.7987 52.9056C76.4654 52.6414 75.0845 53.0024 74.0511 53.8854L55.5453 69.5123C53.2542 71.4469 50.2176 72.2545 47.2681 71.7138L43.4824 71.0196" fill="#FFCDAC"/>
<path d="M31.0319 45.1404C35.704 49.8126 41.1482 47.978 41.1482 47.978C41.1482 47.978 42.9828 42.5339 38.3106 37.8617C33.6384 33.1895 28.2471 35.0193 28.1941 35.024C28.194 35.0238 26.3599 40.4683 31.0319 45.1404Z" fill="#46C373"/>
<path d="M54.8102 35.0238C54.7571 35.0193 49.3658 33.1894 44.6938 37.8615C40.0218 42.5337 41.8562 47.9778 41.8562 47.9778C41.8562 47.9778 47.3003 49.8124 51.9725 45.1403C56.6447 40.4683 54.8102 35.0238 54.8102 35.0238Z" fill="#A5DC69"/>
</svg>
