<svg width="22" height="17" viewBox="0 0 22 17" fill="none" xmlns="http://www.w3.org/2000/svg">
<path d="M22 2.01284C21.1759 2.35844 20.3028 2.58652 19.4088 2.6897C20.352 2.1526 21.0579 1.30753 21.3949 0.311964C20.5081 0.811952 19.538 1.16422 18.5266 1.35359C17.9075 0.726659 17.1047 0.291142 16.2224 0.103452C15.3401 -0.0842375 14.4189 -0.0154496 13.5782 0.300939C12.7375 0.617328 12.016 1.16672 11.5073 1.87789C10.9986 2.58905 10.7261 3.42921 10.7252 4.28947C10.7258 4.61921 10.7645 4.9479 10.8407 5.26958C9.04847 5.18624 7.29457 4.74616 5.69223 3.97776C4.08988 3.20937 2.67471 2.12975 1.53811 0.808606C0.964935 1.7507 0.789203 2.86478 1.04645 3.92548C1.3037 4.98618 1.97472 5.91432 2.92379 6.52216C2.20666 6.50059 1.50524 6.3168 0.877609 5.98598V6.04309C0.878406 7.03411 1.23942 7.99438 1.89945 8.76099C2.55947 9.52761 3.47786 10.0534 4.49884 10.2491C3.83429 10.4188 3.1382 10.4444 2.4619 10.3239C2.74918 11.1769 3.30986 11.9229 4.06534 12.4573C4.82081 12.9917 5.73315 13.2877 6.67437 13.3037C5.07631 14.4928 3.10485 15.1366 1.07622 15.1321C0.716525 15.1317 0.357157 15.1111 0 15.0705C2.0653 16.3366 4.47162 17.0067 6.92841 17C15.2425 17 19.7645 10.4601 19.7645 4.79051C19.7645 4.60153 19.7645 4.41693 19.7645 4.23233C20.642 3.62446 21.399 2.87294 22 2.01284Z" fill="black"/>
</svg>
