<svg width="22" height="23" viewBox="0 0 22 23" fill="none" xmlns="http://www.w3.org/2000/svg">
<path d="M20.7845 0H1.21555C0.893166 0 0.583992 0.13388 0.356033 0.372201C0.128073 0.610522 0 0.93375 0 1.27079V21.7292C0 22.0662 0.128073 22.3895 0.356033 22.6278C0.583992 22.8661 0.893166 23 1.21555 23H11.7487V14.0947H8.88318V10.6206H11.7487V8.0645C11.7487 5.09286 13.4865 3.47416 16.0193 3.47416C16.876 3.47274 17.7322 3.5179 18.5844 3.60946V6.71639H16.8235C15.437 6.71639 15.1781 7.40252 15.1781 8.40756V10.6206H18.4689L18.0391 14.0947H15.1781V23H20.7845C21.1068 23 21.416 22.8661 21.644 22.6278C21.8719 22.3895 22 22.0662 22 21.7292V1.27079C22 0.93375 21.8719 0.610522 21.644 0.372201C21.416 0.13388 21.1068 0 20.7845 0Z" fill="black"/>
</svg>
