<svg width="25" height="31" viewBox="0 0 25 31" fill="none" xmlns="http://www.w3.org/2000/svg">
<path d="M24.2273 27.2684C24.1639 23.1716 22.8986 19.4465 20.649 16.7494C18.4126 14.0688 15.3816 12.5925 12.1135 12.5925C8.84541 12.5925 5.81442 14.0688 3.57794 16.7494C1.33052 19.4436 0.0660886 23.1636 0 27.2553C1.27083 27.8975 6.52969 30.3703 12.1135 30.3703C18.1515 30.3703 23.0487 27.912 24.2273 27.2684Z" fill="#C6E6B0"/>
<path d="M11.7352 11.8519C15.2893 11.8519 18.1706 9.19873 18.1706 5.92593C18.1706 2.65313 15.2893 0 11.7352 0C8.18102 0 5.2998 2.65313 5.2998 5.92593C5.2998 9.19873 8.18102 11.8519 11.7352 11.8519Z" fill="#C6E6B0"/>
</svg>
