<svg width="81" height="80" viewBox="0 0 81 80" fill="none" xmlns="http://www.w3.org/2000/svg">
<g clip-path="url(#clip0)">
<path fill-rule="evenodd" clip-rule="evenodd" d="M10.35 30.68C6.46 29.25 2.82 25.97 2.48 21.62C2.4 20.59 2.84 20.2 3.57 19.57C6.64 16.91 11.24 16.86 14.9 18.18C18.8 19.62 22.41 22.89 22.77 27.24C22.86 28.28 22.43 28.6401 21.68 29.2901C18.6 31.9401 14.01 31.99 10.35 30.68ZM35.18 19.76C39.06 18.33 42.64 15.1 43.05 10.79C43.16 9.67005 42.7 9.27005 41.89 8.59005C38.82 5.99005 34.26 5.95005 30.63 7.25005C26.75 8.68005 23.18 11.91 22.77 16.22C22.66 17.35 23.12 17.74 23.92 18.42C27 21.01 31.55 21.06 35.18 19.76Z" fill="#7DD787"/>
<path fill-rule="evenodd" clip-rule="evenodd" d="M7.84 17.55C10.17 17.09 12.71 17.38 14.9 18.17C18.8 19.61 22.41 22.88 22.77 27.23C22.86 28.27 22.43 28.63 21.68 29.28C19.23 31.39 15.82 31.86 12.68 31.3C14.25 30.99 15.72 30.34 16.95 29.28C17.7 28.63 18.13 28.27 18.04 27.23C17.69 22.87 14.07 19.61 10.17 18.17C9.43 17.9 8.65 17.69 7.84 17.55ZM35.18 19.76C39.06 18.33 42.64 15.1 43.05 10.79C43.16 9.66999 42.7 9.26999 41.89 8.58999C39.45 6.52999 36.07 6.07999 32.97 6.62999C34.5 6.92999 35.96 7.55999 37.17 8.58999C37.97 9.26999 38.43 9.66999 38.32 10.79C37.92 15.1 34.34 18.33 30.46 19.76C29.71 20.03 28.93 20.24 28.13 20.38C30.46 20.83 32.99 20.54 35.18 19.76Z" fill="#7DD787"/>
<path fill-rule="evenodd" clip-rule="evenodd" d="M4.53 51.85L23.31 50.53L41 51.85L37.6 78.31C37.54 78.83 37.14 79.25 36.54 79.25H8.99C8.4 79.25 8.01 78.98 7.93 78.31L4.53 51.85Z" fill="#F5B955"/>
<path fill-rule="evenodd" clip-rule="evenodd" d="M4.53 38.12H41C43.42 38.12 45.4 40.1 45.4 42.52V47.45C45.4 49.87 43.42 51.85 41 51.85H4.53C2.11 51.85 0.129997 49.87 0.129997 47.45V42.52C0.119997 40.1 2.1 38.12 4.53 38.12Z" fill="#F5B955"/>
<path fill-rule="evenodd" clip-rule="evenodd" d="M36.28 38.12H41C43.42 38.12 45.4 40.1 45.4 42.52V47.45C45.4 49.87 43.42 51.85 41 51.85H36.28C38.7 51.85 40.68 49.87 40.68 47.45V42.52C40.69 40.1 38.71 38.12 36.28 38.12Z" fill="#F5B955"/>
<path fill-rule="evenodd" clip-rule="evenodd" d="M36.28 51.85H41L37.6 78.31C37.54 78.83 37.14 79.25 36.54 79.25H31.82C32.43 79.25 32.82 78.84 32.89 78.31L36.28 51.85Z" fill="#F5B955"/>
<path fill-rule="evenodd" clip-rule="evenodd" d="M73.25 72.4C73.25 76.17 70.17 79.25 66.4 79.25C62.64 79.25 59.55 76.17 59.55 72.4C59.55 66.89 59.55 61.38 59.55 55.87C59.55 54.22 60.9 52.86 62.56 52.86H70.25C71.9 52.86 73.25 54.21 73.25 55.87V72.4Z" fill="#F5B955"/>
<path fill-rule="evenodd" clip-rule="evenodd" d="M73.25 72.4C73.25 76.17 70.17 79.25 66.4 79.25C65.57 79.25 64.78 79.1 64.04 78.83C66.65 77.86 68.53 75.34 68.53 72.41C68.53 66.9 68.53 61.39 68.53 55.88C68.53 54.23 67.18 52.87 65.53 52.87H70.25C71.9 52.87 73.25 54.22 73.25 55.88C73.25 61.38 73.25 66.89 73.25 72.4Z" fill="#F5B955"/>
<path fill-rule="evenodd" clip-rule="evenodd" d="M63.62 39.29H69.2V54.11H63.62V39.29Z" fill="#AFFFF5"/>
<path fill-rule="evenodd" clip-rule="evenodd" d="M62.56 52.86C60.91 52.86 59.55 54.21 59.55 55.87V59.41H73.24V55.87C73.24 54.22 71.89 52.86 70.24 52.86C67.69 52.86 65.13 52.86 62.56 52.86Z" fill="#AFFFF5"/>
<path fill-rule="evenodd" clip-rule="evenodd" d="M68.53 59.41H73.25V55.87C73.25 54.22 71.9 52.86 70.25 52.86H65.53C67.18 52.86 68.53 54.21 68.53 55.87V59.41Z" fill="#AFFFF5"/>
<path fill-rule="evenodd" clip-rule="evenodd" d="M66.41 0C74.3 0 80.7 7.89 80.7 17.63V39.6C80.7 40.12 80.27 40.54 79.75 40.54H53.07C52.55 40.54 52.13 40.12 52.13 39.6V17.63C52.12 7.89 58.52 0 66.41 0Z" fill="#AFFFF5"/>
<path fill-rule="evenodd" clip-rule="evenodd" d="M66.41 0C74.3 0 80.7 7.89 80.7 17.63V39.6C80.7 40.12 80.27 40.54 79.75 40.54H75.03C75.55 40.54 75.97 40.12 75.97 39.6V17.63C75.97 8.89 70.81 1.63 64.05 0.24C64.82 0.08 65.6 0 66.41 0Z" fill="#AFFFF5"/>
<path fill-rule="evenodd" clip-rule="evenodd" d="M66.41 16.87C69.74 16.87 72.43 27.46 72.43 40.53H60.39C60.39 27.47 63.08 16.87 66.41 16.87Z" fill="#AFFFF5"/>
<path fill-rule="evenodd" clip-rule="evenodd" d="M66.41 16.87C69.74 16.87 72.43 27.46 72.43 40.53H67.71C67.71 30.76 66.2 22.36 64.05 18.76C64.77 17.54 65.57 16.87 66.41 16.87Z" fill="#AFFFF5"/>
<path fill-rule="evenodd" clip-rule="evenodd" d="M22.76 56.34C24.07 56.37 24.96 58.12 25.3 59.19C25.7 60.44 26.06 60.37 27.21 60.13C28.22 59.92 30.09 59.89 30.71 60.9C31.41 62.05 30.3 63.72 29.53 64.57C28.67 65.52 28.91 65.83 29.68 66.7C30.36 67.46 31.33 69.07 30.76 70.11C30.12 71.28 28.1 71.18 27 70.93C25.71 70.64 25.61 70.99 25.23 72.12C24.9 73.09 24.01 74.73 22.82 74.76C21.47 74.8 20.58 73 20.23 71.91C19.84 70.7 19.45 70.74 18.32 70.97C17.31 71.18 15.44 71.22 14.82 70.2C14.11 69.04 15.23 67.38 16 66.53C17.1 65.3 16.27 65.03 15.54 64C14.96 63.19 14.26 61.93 14.8 60.94C15.51 59.77 17.52 59.94 18.65 60.19C20.16 60.52 19.99 59.67 20.46 58.6C20.85 57.68 21.61 56.37 22.76 56.34Z" fill="#AFFFF5"/>
<path fill-rule="evenodd" clip-rule="evenodd" d="M20.43 58.64C23.29 59.63 25.35 62.35 25.35 65.55C25.35 68.74 23.3 71.46 20.44 72.45C20.88 73.5 21.69 74.78 22.83 74.75C24.02 74.72 24.92 73.08 25.24 72.11C25.62 70.99 25.72 70.63 27.01 70.92C28.12 71.17 30.13 71.27 30.77 70.1C31.34 69.06 30.37 67.45 29.69 66.69C28.92 65.82 28.67 65.51 29.54 64.56C30.31 63.71 31.42 62.04 30.72 60.89C30.1 59.87 28.23 59.91 27.22 60.12C26.07 60.36 25.7 60.43 25.31 59.18C24.97 58.11 24.09 56.36 22.77 56.33C21.61 56.36 20.85 57.66 20.45 58.59C20.43 58.62 20.43 58.63 20.43 58.64Z" fill="#AFFFF5"/>
<path d="M44.26 9.73995C44.25 9.47995 44.15 9.22995 43.99 9.04995C42.87 7.55995 41.25 6.45995 39.34 5.82995C37.47 5.20995 35.32 5.02995 33.12 5.36995C32.45 5.45995 32 6.07995 32.1 6.74995C32.21 7.40995 32.82 7.85995 33.48 7.75995C35.3 7.47995 37.06 7.61995 38.58 8.11995C39.9 8.55995 41.04 9.27995 41.85 10.25C41.85 11.84 41.21 13.47 40.07 14.9C38.82 16.47 37 17.8 34.77 18.62C32.54 19.43 30.29 19.59 28.32 19.18C27.05 18.92 25.91 18.42 24.99 17.73L32.92 15.02C33.55 14.81 33.89 14.12 33.68 13.49C33.46 12.86 32.77 12.51 32.14 12.73L24.11 15.47C24.29 14.64 24.63 13.82 25.11 13.04C25.94 11.68 27.2 10.45 28.77 9.49995C29.34 9.14995 29.53 8.40995 29.18 7.82995C28.84 7.25995 28.09 7.06995 27.51 7.41995C25.6 8.57995 24.06 10.09 23.03 11.78C21.89 13.63 21.57 15.07 21.54 17.22V21.47C20.04 19.6 17.87 18.01 15.25 17.06C12.6 16.09 9.90001 15.92 7.52001 16.41C5.04001 16.92 2.91001 18.16 1.54001 19.98C1.38001 20.17 1.28001 20.41 1.26001 20.68C1.12001 22.98 1.96001 25.32 3.54001 27.32C5.05001 29.23 7.23001 30.83 9.88001 31.8C10 31.85 10.13 31.88 10.26 31.92C10.64 31.93 11.02 31.94 11.39 31.94C12.46 31.94 13.35 32.22 14.07 32.68C15.3 32.76 16.5 32.68 17.62 32.45C19.08 32.15 20.41 31.6 21.54 30.83V36.94C21.59 37.21 21.62 37.49 21.6 37.79C21.6 37.84 21.6 37.9 21.6 37.95C21.6 37.97 21.6 37.99 21.59 38.02C21.53 38.46 21.47 38.91 21.41 39.35C21.41 39.36 21.41 39.37 21.41 39.38C21.41 39.38 21.41 39.38 21.41 39.39H24.08C24.01 39.07 23.98 38.73 23.99 38.38V36.98C23.99 36.97 23.99 36.97 23.99 36.96H23.97V19.98C25.09 20.72 26.4 21.26 27.82 21.55C30.21 22.04 32.92 21.87 35.58 20.9C38.24 19.93 40.44 18.32 41.95 16.41C43.55 14.39 44.39 12.04 44.26 9.73995ZM12.61 25.47L20.84 28.28C19.87 29.14 18.59 29.74 17.15 30.04C15.2 30.44 12.95 30.29 10.73 29.48C8.51001 28.68 6.70001 27.35 5.46001 25.79C4.33001 24.36 3.70001 22.74 3.69001 21.16C4.71001 19.95 6.24001 19.12 8.02001 18.76C9.97001 18.36 12.22 18.51 14.44 19.32C16.66 20.12 18.47 21.45 19.71 23.01C20.41 23.9 20.93 24.86 21.22 25.85L13.4 23.18C12.77 22.96 12.08 23.3 11.86 23.94C11.64 24.57 11.98 25.26 12.61 25.47Z" fill="#5A9927"/>
<path d="M45.38 45.12C45.38 45.09 45.39 45.06 45.39 45.03C45.31 44.95 45.23 44.87 45.15 44.78C44.9 44.62 44.64 44.47 44.4 44.28C44.33 44.25 44.26 44.2 44.2 44.17V44.21C44.06 44.13 43.92 44.04 43.78 43.96C42.88 43.41 41.97 42.86 40.88 42.86C39.79 42.86 38.89 43.41 37.99 43.96C37.38 44.33 36.77 44.7 36.35 44.7C35.93 44.7 35.33 44.33 34.72 43.96C33.82 43.41 32.91 42.86 31.82 42.86C30.73 42.86 29.83 43.41 28.92 43.96C28.31 44.33 27.71 44.7 27.28 44.7C26.86 44.7 26.26 44.33 25.65 43.96C24.75 43.41 23.84 42.86 22.75 42.86C21.66 42.86 20.76 43.41 19.85 43.96C19.24 44.33 18.64 44.7 18.22 44.7C17.8 44.7 17.19 44.33 16.58 43.96C15.68 43.41 14.78 42.86 13.68 42.86C12.59 42.86 11.69 43.41 10.79 43.96C10.18 44.33 9.58 44.7 9.16 44.7C8.74 44.7 8.13 44.33 7.52 43.96C6.62 43.41 5.72 42.86 4.62 42.86C3.57 42.86 2.7 43.37 1.83 43.9C1.23 44.36 0.62 44.8 0 45.25C0.03 45.8 0.02 46.36 0 46.92C0.49 46.91 0.98 46.88 1.46 46.84C2 46.63 2.51 46.33 3.01 46.02C3.62 45.65 4.22 45.28 4.64 45.28C5.06 45.28 5.66 45.65 6.27 46.02C7.18 46.58 8.08 47.13 9.17 47.13C10.26 47.13 11.16 46.58 12.07 46.02C12.68 45.65 13.28 45.28 13.7 45.28C14.12 45.28 14.72 45.65 15.33 46.02C16.24 46.58 17.14 47.13 18.23 47.13C19.32 47.13 20.22 46.58 21.12 46.02C21.73 45.65 22.33 45.28 22.75 45.28C23.17 45.28 23.77 45.65 24.38 46.02C25.29 46.58 26.19 47.13 27.27 47.13C28.36 47.13 29.26 46.58 30.17 46.02C30.78 45.65 31.38 45.28 31.8 45.28C32.22 45.28 32.82 45.65 33.43 46.02C34.34 46.58 35.24 47.13 36.33 47.13C37.42 47.13 38.32 46.58 39.23 46.02C39.84 45.65 40.44 45.28 40.86 45.28C41.28 45.28 41.88 45.65 42.49 46.02C42.93 46.29 43.37 46.54 43.83 46.74C44.02 46.8 44.21 46.88 44.39 46.97C44.45 46.99 44.51 47.01 44.57 47.02C44.84 47.04 45.12 47.03 45.39 47.04C45.4 46.4 45.38 45.76 45.38 45.12Z" fill="#5A9927"/>
<path d="M73.5 35.37C73.4 33.64 73.26 32 73.08 30.46C73.01 29.79 72.4 29.32 71.74 29.39C71.07 29.47 70.6 30.07 70.67 30.74C70.85 32.26 70.99 33.86 71.08 35.51C71.15 36.73 71.19 38 71.21 39.32H61.61C61.69 33.37 62.33 28.02 63.33 24.1C64.28 20.39 65.38 18.08 66.41 18.08C66.82 18.08 67.32 18.63 67.87 19.61C68.61 20.95 69.27 22.94 69.8 25.41C69.94 26.07 70.59 26.48 71.24 26.34C71.9 26.2 72.32 25.55 72.17 24.9C71.58 22.2 70.84 19.99 69.99 18.44C69 16.65 67.79 15.65 66.41 15.65C64.12 15.65 62.21 18.65 60.97 23.5C59.93 27.6 59.26 33.16 59.18 39.32H59.17C59.17 39.33 59.17 39.34 59.17 39.36C59.17 39.42 59.16 39.49 59.15 39.55C59.14 40.05 59.11 40.56 59.08 41.06C59.08 41.12 59.08 41.17 59.08 41.23C59.09 41.35 59.09 41.47 59.09 41.59V41.75H62.31C62.43 41.74 62.56 41.73 62.68 41.73C63.39 41.72 64.1 41.74 64.82 41.75H67.98V41.76C67.99 41.76 67.99 41.76 68 41.76C68.32 41.74 68.64 41.77 68.97 41.77C69.31 41.77 69.64 41.73 69.98 41.74C70 41.74 70.03 41.75 70.05 41.75C70.1 41.75 70.16 41.74 70.21 41.74C70.29 41.74 70.36 41.75 70.44 41.75H73.58V37.94C73.58 37.93 73.58 37.91 73.58 37.9C73.56 37.06 73.55 36.21 73.5 35.37Z" fill="#5A9927"/>
</g>
<defs>
<clipPath id="clip0">
<rect width="80.69" height="79.25" fill="white"/>
</clipPath>
</defs>
</svg>
