<svg width="83" height="83" viewBox="0 0 83 83" fill="none" xmlns="http://www.w3.org/2000/svg">
<path d="M52.7429 77.5871C58.2843 83.1285 64.7415 80.9525 64.7415 80.9525C64.7415 80.9525 66.9173 74.4954 61.3761 68.954C55.8348 63.4126 49.4403 65.5828 49.3772 65.5883C49.3772 65.5881 47.2015 72.0456 52.7429 77.5871Z" fill="#A5DC69"/>
<path d="M80.9457 65.5881C80.8826 65.5826 74.4882 63.4125 68.9468 68.9538C63.4055 74.4952 65.5814 80.9524 65.5814 80.9524C65.5814 80.9524 72.0386 83.1284 77.58 77.587C83.1214 72.0456 80.9457 65.5881 80.9457 65.5881Z" fill="#46C373"/>
<path d="M33.2673 35.6199C34.8145 35.6199 36.0688 34.3656 36.0688 32.8183C36.0688 31.271 34.8145 30.0167 33.2673 30.0167C31.72 30.0167 30.4657 31.271 30.4657 32.8183C30.4657 34.3656 31.72 35.6199 33.2673 35.6199Z" fill="#6E6E6E"/>
<path d="M7.28703 58.7983L15.0879 56.9553C20.0932 55.7728 24.6704 53.2203 28.307 49.5835C30.82 47.0705 32.4826 43.8336 33.0618 40.3272C33.7711 36.0337 30.0513 32.3141 25.7578 33.0232C22.2515 33.6022 19.0145 35.265 16.5015 37.778C12.8649 41.415 10.3123 45.9921 9.12989 50.9973L7.28703 58.7983Z" fill="#F5B955"/>
<path d="M20.4156 55.1051L10.9802 45.6697C10.1878 47.3707 9.56548 49.1546 9.13005 50.9974L7.28703 58.7983L15.0879 56.9553C16.9306 56.5199 18.7145 55.8975 20.4156 55.1051Z" fill="#6E6E6E"/>
<path d="M19.747 35.2415C18.5735 35.9493 17.4818 36.7979 16.5017 37.7782C15.9055 38.3744 15.3418 38.9981 14.8051 39.6425L26.4429 51.2803C27.0875 50.7437 27.7111 50.1799 28.3073 49.5837C29.2876 48.6034 30.1364 47.5119 30.844 46.3384L19.747 35.2415Z" fill="#6E6E6E"/>
<rect width="3.21516" height="11.2073" rx="1.60758" transform="matrix(-0.703968 -0.710232 -0.710232 0.703968 74.8285 74.0005)" fill="#5A9927"/>
<rect width="3.21516" height="11.2159" rx="1.60758" transform="matrix(-0.704015 0.710185 0.710185 0.704015 57.2635 72)" fill="#5A9927"/>
<path d="M26.0025 51.6464L28.2406 58.9799C28.745 60.6328 29.7876 62.0699 31.2026 63.0622C34.2376 65.1908 38.3458 64.8668 41.0111 62.3127C43.5651 59.6473 43.8892 55.5391 41.7605 52.5043C40.7681 51.0894 39.3311 50.0468 37.6783 49.5422L30.6477 47.3965L26.0025 51.6464Z" fill="#AAE6FF"/>
<path d="M40.8958 62.4333L41.1316 62.1974C41.0921 62.237 41.0512 62.2743 41.011 62.3127C40.9726 62.3529 40.9353 62.3939 40.8958 62.4333Z" fill="#F5B955"/>
<path d="M3.6561 25.1934C3.69566 25.1539 3.73651 25.1166 3.77671 25.0782C3.81513 25.038 3.85258 24.9971 3.89197 24.9576L3.6561 25.1934Z" fill="#F5B955"/>
<path d="M18.6927 35.4415L16.547 28.411C16.0425 26.7581 15 25.321 13.5849 24.3288C10.5499 22.2001 6.4417 22.5242 3.77645 25.0782C1.22242 27.7436 0.898359 31.8518 3.02702 34.8866C4.01946 36.3015 5.45624 37.3441 7.10927 37.8487L14.4428 40.0868L18.6927 35.4415Z" fill="#AAE6FF"/>
<path d="M28.8988 16.4917C31.0473 16.4917 32.7891 14.75 32.7891 12.6014C32.7891 10.4529 31.0473 8.71112 28.8988 8.71112C26.7502 8.71112 25.0085 10.4529 25.0085 12.6014C25.0085 14.75 26.7502 16.4917 28.8988 16.4917Z" fill="#E6AA46"/>
<path d="M38.7663 75.6002L36.907 77.4594V72.6195C36.907 71.7243 36.1813 70.9985 35.2861 70.9985C34.3909 70.9985 33.6652 71.7245 33.6652 72.6195V77.4593L31.8059 75.6002C31.1729 74.9675 30.1466 74.9675 29.5135 75.6002C28.8805 76.2332 28.8803 77.2595 29.5135 77.8927L34.14 82.5192C34.4439 82.8231 34.8563 82.994 35.2861 82.994C35.7159 82.994 36.1284 82.8231 36.4322 82.5192L41.0587 77.8927C41.6917 77.2597 41.6917 76.2334 41.0587 75.6002C40.4258 74.9673 39.3995 74.9673 38.7663 75.6002Z" fill="#5A9927"/>
<path d="M23.6458 75.6002L21.7865 77.4594V72.6195C21.7865 71.7243 21.0608 70.9985 20.1656 70.9985C19.2703 70.9985 18.5447 71.7245 18.5447 72.6195V77.4593L16.6856 75.6002C16.0524 74.9675 15.0262 74.9675 14.3932 75.6002C13.7602 76.2332 13.76 77.2595 14.3932 77.8927L19.0197 82.5192C19.3236 82.8231 19.736 82.994 20.1658 82.994C20.5957 82.994 21.0081 82.8231 21.3119 82.5192L25.9383 77.8927C26.5714 77.2597 26.5714 76.2334 25.9383 75.6002C25.3051 74.9673 24.2788 74.9673 23.6458 75.6002Z" fill="#5A9927"/>
<path d="M9.73063 75.6002L7.87155 77.4593V72.6195C7.87155 71.7243 7.14579 70.9985 6.25062 70.9985C5.35545 70.9985 4.62968 71.7245 4.62968 72.6195V77.4593L2.77045 75.6C2.13741 74.9671 1.11109 74.9671 0.477892 75.6C-0.155147 76.2331 -0.155147 77.2594 0.477892 77.8926L5.10434 82.519C5.4083 82.823 5.8207 82.9938 6.25046 82.9938C6.68021 82.9938 7.09278 82.823 7.39657 82.519L12.023 77.8926C12.6561 77.2595 12.6561 76.2332 12.023 75.6C11.39 74.9673 10.3637 74.9673 9.73063 75.6002Z" fill="#5A9927"/>
<path d="M28.8986 18.1125C31.9377 18.1125 34.4099 15.6402 34.4099 12.6013C34.4099 9.56236 31.9375 7.09003 28.8986 7.09003C25.8597 7.09003 23.3874 9.56236 23.3874 12.6013C23.3874 15.6402 25.8597 18.1125 28.8986 18.1125ZM28.8986 10.3319C30.1499 10.3319 31.168 11.3499 31.168 12.6013C31.168 13.8526 30.1499 14.8706 28.8986 14.8706C27.6473 14.8706 26.6292 13.8526 26.6292 12.6013C26.6292 11.3499 27.6473 10.3319 28.8986 10.3319Z" fill="#E6AA46"/>
<rect x="63" y="38" width="4" height="43" rx="2" fill="#5A9927"/>
<path d="M28.9192 4.17173C29.8145 4.17173 30.5401 3.44597 30.5401 2.5508V1.62093C30.5401 0.725603 29.8144 0 28.9192 0C28.0239 0 27.2983 0.725765 27.2983 1.62093V2.5508C27.2981 3.44597 28.0239 4.17173 28.9192 4.17173Z" fill="#E6AA46"/>
<path d="M27.2568 22.6518V23.5816C27.2568 24.4769 27.9826 25.2026 28.8778 25.2026C29.7731 25.2026 30.4987 24.4768 30.4987 23.5816V22.6518C30.4987 21.7564 29.7729 21.0308 28.8778 21.0308C27.9826 21.0308 27.2568 21.7566 27.2568 22.6518Z" fill="#E6AA46"/>
<path d="M37.3281 12.6219C37.3281 13.5172 38.0538 14.2428 38.949 14.2428H39.8789C40.7742 14.2428 41.4998 13.5171 41.4998 12.6219C41.4998 11.7265 40.774 11.0009 39.8789 11.0009H38.949C38.0537 11.0009 37.3281 11.7265 37.3281 12.6219Z" fill="#E6AA46"/>
<path d="M17.9183 14.2016H18.8482C19.7435 14.2016 20.4691 13.4759 20.4691 12.5807C20.4691 11.6855 19.7433 10.9597 18.8482 10.9597H17.9183C17.023 10.9597 16.2974 11.6855 16.2974 12.5807C16.2974 13.4759 17.023 14.2016 17.9183 14.2016Z" fill="#E6AA46"/>
<path d="M36.0199 7.13008C36.4347 7.13008 36.8497 6.97186 37.166 6.65526L37.8235 5.99774C38.4565 5.3647 38.4565 4.33839 37.8235 3.70519C37.1905 3.07215 36.1642 3.07215 35.531 3.70519L34.8734 4.3627C34.2404 4.99574 34.2404 6.02206 34.8734 6.65526C35.1902 6.97186 35.605 7.13008 36.0199 7.13008Z" fill="#E6AA46"/>
<path d="M20.6309 18.5471L19.9734 19.2047C19.3403 19.8377 19.3403 20.864 19.9734 21.4972C20.29 21.8138 20.7048 21.972 21.1195 21.972C21.5343 21.972 21.9493 21.8138 22.2656 21.4972L22.9231 20.8397C23.5561 20.2067 23.5561 19.1803 22.9231 18.5471C22.2906 17.9143 21.2641 17.9143 20.6309 18.5471Z" fill="#E6AA46"/>
<path d="M37.1373 18.5763C36.5043 17.9433 35.478 17.9433 34.8448 18.5763C34.2117 19.2093 34.2117 20.2357 34.8448 20.8689L35.5023 21.5264C35.8189 21.843 36.2337 22.0012 36.6484 22.0012C37.0631 22.0012 37.4782 21.843 37.7945 21.5264C38.4276 20.8933 38.4276 19.867 37.7945 19.2338L37.1373 18.5763Z" fill="#E6AA46"/>
<path d="M20.6603 6.62609C20.9769 6.94269 21.3917 7.10091 21.8064 7.10091C22.2211 7.10091 22.6362 6.94269 22.9525 6.62609C23.5856 5.99305 23.5856 4.96673 22.9525 4.33353L22.295 3.67601C21.662 3.04297 20.6356 3.04297 20.0024 3.67601C19.3694 4.30905 19.3694 5.33537 20.0024 5.96857L20.6603 6.62609Z" fill="#E6AA46"/>
<path d="M78.4386 37.7934C81.2937 35.7969 82.2243 31.9659 80.4864 28.9554C78.7458 25.9405 74.9541 24.8324 71.7945 26.3164C71.4929 22.8456 68.6405 20.124 65.1644 20.124C61.6831 20.124 58.8277 22.8537 58.5332 26.3318C55.3766 24.8576 51.5934 25.9669 49.8553 28.9774C48.1147 31.9923 49.0509 35.8301 51.9158 37.8242C49.0608 39.8208 48.1301 43.6518 49.8681 46.6623C51.6086 49.6772 55.4004 50.7852 58.5599 49.3013C58.8616 52.772 61.7139 55.4937 65.19 55.4937C68.6713 55.4937 71.5267 52.7639 71.8213 49.2859C74.9777 50.7601 78.761 49.6508 80.4992 46.6402C82.2397 43.6255 81.3036 39.7875 78.4386 37.7934Z" fill="#E68CBE"/>
<path d="M65.1776 43.0109C68.0505 43.0109 70.3794 40.682 70.3794 37.8092C70.3794 34.9363 68.0505 32.6074 65.1776 32.6074C62.3047 32.6074 59.9758 34.9363 59.9758 37.8092C59.9758 40.682 62.3047 43.0109 65.1776 43.0109Z" fill="#F5B955"/>
</svg>
