<svg width="83" height="83" viewBox="0 0 83 83" fill="none" xmlns="http://www.w3.org/2000/svg">
<path d="M70.8158 43.997C75.2082 31.0229 71.3579 14.9537 61.076 11.4729C50.7941 7.99208 37.9742 18.418 33.582 31.3917C29.1898 44.3655 34.8884 54.9748 45.1702 58.4557C55.4521 61.9365 66.4235 56.9711 70.8158 43.997Z" fill="#D7D7E6"/>
<path d="M51.5138 38.0518C51.5138 24.3546 42.714 10.3683 31.859 10.3683C21.004 10.3683 12.2043 24.3544 12.2043 38.0518C12.2043 51.7492 21.004 59.9706 31.859 59.9706C42.714 59.9706 51.5138 51.7491 51.5138 38.0518Z" fill="#F0F0FA"/>
<path d="M66.6109 60.1039H16.3891C10.663 60.1039 6.02081 55.4618 6.02081 49.7356V36.7751H76.9792V49.7356C76.9792 55.4619 72.337 60.1039 66.6109 60.1039Z" fill="#F5C86E"/>
<path d="M67.5828 72.5784H81.3532V62.8559L57.5385 60.1016L72.6049 50.3274L64.3427 47.5215L45.1662 60.0713L45.0641 60.1039H1.64656V72.5784H70.8368H67.5828Z" fill="#5A9927"/>
<path d="M34.3405 57.1187C30.5441 53.3931 31.3851 46.4068 31.3904 46.3499L31.3893 46.3488L31.3901 46.3496L31.3886 46.3482L31.3896 46.3491C31.4193 46.3464 38.1457 45.6846 41.9504 49.4167C45.753 53.1486 45.0679 59.9927 45.0627 60.0222L45.0647 60.0242C45.0647 60.0243 38.1522 60.86 34.3405 57.1187Z" fill="#A5DC69"/>
<path d="M58.2842 78.4771C54.5941 74.8556 55.4113 68.0649 55.4165 68.0096L55.4154 68.0085L55.4162 68.0093L55.4147 68.0078L55.4157 68.0088C55.4446 68.0062 61.9827 67.3629 65.6809 70.9904C69.377 74.618 68.7112 81.2704 68.7062 81.2993L68.708 81.3011C68.7082 81.3014 61.9891 82.1137 58.2842 78.4771Z" fill="#A5DC69"/>
<path d="M47.0234 53.213C49.4066 50.7848 53.8751 51.3225 53.9114 51.3259L53.9121 51.3252L53.9114 51.3259L53.9124 51.3249L53.9118 51.3256C53.9135 51.3445 54.3368 55.6469 51.9498 58.0805C49.5627 60.5126 45.1851 60.0746 45.1662 60.0712L45.1649 60.0725C45.1649 60.0725 44.6304 55.651 47.0234 53.213Z" fill="#A5DC69"/>
</svg>
