<svg width="83" height="83" viewBox="0 0 83 83" fill="none" xmlns="http://www.w3.org/2000/svg">
<path d="M81.3043 77.4312C70.8579 71.7652 56.8723 68.2992 41.5002 68.2992C26.1283 68.2992 12.1425 71.7652 1.6962 77.4312H81.3043Z" fill="#A5DC69"/>
<path d="M41.5189 62.2555L41.5181 62.2534C41.4959 62.2578 36.3522 62.9181 33.5694 60.153C30.7865 57.3862 31.4151 52.2406 31.4174 52.2185L31.4169 52.2176L31.4187 52.2179V52.2166L31.4193 52.2176C31.462 52.2125 36.5894 51.5589 39.3674 54.3196C42.157 57.0913 41.5189 62.2555 41.5189 62.2555Z" fill="#F5B955"/>
<path d="M43.6765 54.3196C46.4545 51.5589 51.582 52.2125 51.6246 52.2176L51.6252 52.2166V52.2179L51.627 52.2176L51.6265 52.2185C51.6288 52.2407 52.2575 57.3863 49.4746 60.153C46.6918 62.9181 41.548 62.2581 41.5258 62.2534L41.525 62.2555C41.525 62.2555 40.8868 57.0913 43.6765 54.3196Z" fill="#F5B955"/>
<path d="M41.5189 48.5828L41.5181 48.5807C41.4959 48.5851 36.3522 49.2453 33.5694 46.4803C30.7865 43.7134 31.4151 38.5679 31.4174 38.5458L31.4169 38.5448L31.4187 38.5452V38.5439L31.4193 38.5448C31.462 38.5398 36.5894 37.8862 39.3674 40.6469C42.157 43.4187 41.5189 48.5828 41.5189 48.5828Z" fill="#F5B955"/>
<path d="M43.6765 40.647C46.4545 37.8863 51.582 38.5399 51.6246 38.545L51.6252 38.544V38.5453L51.627 38.545L51.6265 38.5459C51.6288 38.5681 52.2575 43.7137 49.4746 46.4804C46.6918 49.2455 41.548 48.5855 41.5258 48.5808L41.525 48.5829C41.525 48.5828 40.8868 43.4187 43.6765 40.647Z" fill="#F5B955"/>
<path d="M41.5189 34.9104L41.5181 34.9083C41.4959 34.9127 36.3522 35.573 33.5694 32.8079C30.7865 30.0411 31.4151 24.8955 31.4174 24.8734L31.4169 24.8725L31.4187 24.8728V24.8715L31.4193 24.8725C31.462 24.8674 36.5894 24.2138 39.3674 26.9745C42.157 29.7464 41.5189 34.9104 41.5189 34.9104Z" fill="#F5B955"/>
<path d="M43.6765 26.9743C46.4545 24.2136 51.582 24.8672 51.6246 24.8722L51.6252 24.8713V24.8726L51.627 24.8722L51.6265 24.8732C51.6288 24.8954 52.2575 30.041 49.4746 32.8077C46.6918 35.5727 41.548 34.9128 41.5258 34.9081L41.525 34.9102C41.525 34.9104 40.8868 29.7463 43.6765 26.9743Z" fill="#F5B955"/>
<path d="M71.1349 66.9611L71.1341 66.959C71.1119 66.9634 65.9683 67.6236 63.1854 64.8586C60.4025 62.0917 61.0311 56.9462 61.0334 56.9241L61.0329 56.9231L61.0349 56.9235V56.9222L61.0355 56.9231C61.0782 56.9181 66.2054 56.2645 68.9836 59.0252C71.7731 61.7969 71.1349 66.9611 71.1349 66.9611Z" fill="#F5B955"/>
<path d="M73.2927 59.0252C76.0707 56.2645 81.1982 56.9181 81.2408 56.9231L81.2415 56.9222V56.9235L81.2434 56.9231L81.2429 56.9241C81.2452 56.9463 81.8738 62.0919 79.091 64.8586C76.3082 67.6236 71.1644 66.9637 71.1422 66.959L71.1414 66.9611C71.1412 66.9611 70.5032 61.7969 73.2927 59.0252Z" fill="#F5B955"/>
<path d="M71.1349 53.2888L71.1341 53.2866C71.1119 53.291 65.9683 53.9513 63.1854 51.1862C60.4025 48.4194 61.0311 43.2738 61.0334 43.2517L61.0329 43.2508L61.0349 43.2511V43.2498L61.0355 43.2508C61.0782 43.2457 66.2054 42.5921 68.9836 45.3528C71.7731 48.1244 71.1349 53.2888 71.1349 53.2888Z" fill="#F5B955"/>
<path d="M73.2927 45.3527C76.0707 42.592 81.1982 43.2456 81.2408 43.2506L81.2415 43.2497V43.251L81.2434 43.2506L81.2429 43.2516C81.2452 43.2738 81.8738 48.4194 79.091 51.1861C76.3082 53.9512 71.1644 53.2912 71.1422 53.2865L71.1414 53.2886C71.1412 53.2888 70.5032 48.1244 73.2927 45.3527Z" fill="#F5B955"/>
<path d="M71.1349 39.6161L71.1341 39.614C71.1119 39.6184 65.9683 40.2787 63.1854 37.5136C60.4025 34.7468 61.0311 29.6012 61.0334 29.5791L61.0329 29.5782L61.0349 29.5785V29.5772L61.0355 29.5782C61.0782 29.5731 66.2054 28.9195 68.9836 31.6802C71.7731 34.4519 71.1349 39.6161 71.1349 39.6161Z" fill="#F5B955"/>
<path d="M73.2927 31.6801C76.0707 28.9194 81.1982 29.573 81.2408 29.578L81.2415 29.5771V29.5784L81.2434 29.578L81.2429 29.579C81.2452 29.6012 81.8738 34.7468 79.091 37.5135C76.3082 40.2785 71.1644 39.6186 71.1422 39.6139L71.1414 39.616C71.1412 39.6162 70.5032 34.4519 73.2927 31.6801Z" fill="#F5B955"/>
<path d="M11.8602 66.9611L11.8594 66.959C11.8371 66.9634 6.69349 67.6236 3.91061 64.8586C1.12772 62.0917 1.75637 56.9462 1.75864 56.9241L1.75815 56.9231L1.75994 56.9235V56.9222L1.76058 56.9231C1.80322 56.9181 6.93049 56.2645 9.70868 59.0252C12.4984 61.7969 11.8602 66.9611 11.8602 66.9611Z" fill="#F5B955"/>
<path d="M14.0178 59.0252C16.7958 56.2645 21.9232 56.9181 21.9659 56.9231L21.9665 56.9222V56.9235L21.9685 56.9231L21.968 56.9241C21.9702 56.9463 22.5989 62.0919 19.816 64.8586C17.0333 67.6236 11.8895 66.9637 11.8672 66.959L11.8664 66.9611C11.8663 66.9611 11.2282 61.7969 14.0178 59.0252Z" fill="#F5B955"/>
<path d="M11.8602 53.2888L11.8594 53.2866C11.8371 53.291 6.69349 53.9513 3.91061 51.1862C1.12772 48.4194 1.75637 43.2738 1.75864 43.2517L1.75815 43.2508L1.75994 43.2511V43.2498L1.76058 43.2508C1.80322 43.2457 6.93049 42.5921 9.70868 45.3528C12.4984 48.1244 11.8602 53.2888 11.8602 53.2888Z" fill="#F5B955"/>
<path d="M14.0178 45.3527C16.7958 42.592 21.9232 43.2456 21.9659 43.2506L21.9665 43.2497V43.251L21.9685 43.2506L21.968 43.2516C21.9702 43.2738 22.5989 48.4194 19.816 51.1861C17.0333 53.9512 11.8895 53.2912 11.8672 53.2865L11.8664 53.2886C11.8663 53.2888 11.2282 48.1244 14.0178 45.3527Z" fill="#F5B955"/>
<path d="M11.8602 39.6161L11.8594 39.614C11.8371 39.6184 6.69349 40.2787 3.91061 37.5136C1.12772 34.7468 1.75637 29.6012 1.75864 29.5791L1.75815 29.5782L1.75994 29.5785V29.5772L1.76058 29.5782C1.80322 29.5731 6.93049 28.9195 9.70868 31.6802C12.4984 34.4519 11.8602 39.6161 11.8602 39.6161Z" fill="#F5B955"/>
<path d="M14.0178 31.6801C16.7958 28.9194 21.9232 29.573 21.9659 29.578L21.9665 29.5771V29.5784L21.9685 29.578L21.968 29.579C21.9702 29.6012 22.5989 34.7468 19.816 37.5135C17.0333 40.2785 11.8895 39.6186 11.8672 39.6139L11.8664 39.616C11.8663 39.6162 11.2282 34.4519 14.0178 31.6801Z" fill="#F5B955"/>
<path d="M41.5002 23.7592C42.4356 23.7592 43.1941 23.0009 43.1941 22.0654V15.9467C43.1941 15.0111 42.4356 14.2528 41.5002 14.2528C40.5647 14.2528 39.8064 15.0111 39.8064 15.9467V22.0655C39.8064 23.0009 40.5649 23.7592 41.5002 23.7592Z" fill="#F5B955"/>
<path d="M41.5002 11.8814C42.4356 11.8814 43.1941 11.1231 43.1941 10.1876V8.64918C43.1941 7.71382 42.4356 6.95532 41.5002 6.95532C40.5647 6.95532 39.8064 7.71382 39.8064 8.64918V10.1876C39.8064 11.1231 40.5649 11.8814 41.5002 11.8814Z" fill="#F5B955"/>
<path d="M48.2754 20.6998C49.2109 20.6998 49.9692 19.9415 49.9692 19.0059V12.8872C49.9692 11.9517 49.2109 11.1934 48.2754 11.1934C47.34 11.1934 46.5815 11.9517 46.5815 12.8872V19.0061C46.5815 19.9416 47.34 20.6998 48.2754 20.6998Z" fill="#F5B955"/>
<path d="M48.2754 8.8221C49.2109 8.8221 49.9692 8.06376 49.9692 7.12824V5.58985C49.9692 4.65449 49.2109 3.896 48.2754 3.896C47.34 3.896 46.5815 4.65433 46.5815 5.58985V7.12824C46.5815 8.06392 47.34 8.8221 48.2754 8.8221Z" fill="#F5B955"/>
<path d="M34.7251 20.6783C35.6605 20.6783 36.419 19.9198 36.419 18.9845V12.8657C36.419 11.9304 35.6605 11.1719 34.7251 11.1719C33.7896 11.1719 33.0312 11.9304 33.0312 12.8657V18.9846C33.0314 19.92 33.7897 20.6783 34.7251 20.6783Z" fill="#F5B955"/>
<path d="M34.7251 8.80062C35.6605 8.80062 36.419 8.04212 36.419 7.10676V5.56837C36.419 4.63285 35.6605 3.87451 34.7251 3.87451C33.7896 3.87451 33.0312 4.63285 33.0312 5.56837V7.10676C33.0314 8.04228 33.7897 8.80062 34.7251 8.80062Z" fill="#F5B955"/>
<path d="M71.1165 28.4648C72.0518 28.4648 72.8103 27.7063 72.8103 26.771V20.6521C72.8103 19.7168 72.0518 18.9583 71.1165 18.9583C70.181 18.9583 69.4226 19.7168 69.4226 20.6521V26.771C69.4228 27.7065 70.1811 28.4648 71.1165 28.4648Z" fill="#F5B955"/>
<path d="M71.1165 16.5871C72.0518 16.5871 72.8103 15.8286 72.8103 14.8933V13.3549C72.8103 12.4193 72.0518 11.661 71.1165 11.661C70.181 11.661 69.4226 12.4193 69.4226 13.3549V14.8933C69.4228 15.8289 70.1811 16.5871 71.1165 16.5871Z" fill="#F5B955"/>
<path d="M77.8918 25.4055C78.8271 25.4055 79.5856 24.647 79.5856 23.7117V17.5928C79.5856 16.6574 78.8271 15.8989 77.8918 15.8989C76.9563 15.8989 76.1979 16.6574 76.1979 17.5928V23.7117C76.1979 24.647 76.9563 25.4055 77.8918 25.4055Z" fill="#F5B955"/>
<path d="M77.8918 13.5278C78.8271 13.5278 79.5856 12.7693 79.5856 11.8339V10.2955C79.5856 9.36002 78.8271 8.60168 77.8918 8.60168C76.9563 8.60168 76.1979 9.36002 76.1979 10.2955V11.8339C76.1979 12.7693 76.9563 13.5278 77.8918 13.5278Z" fill="#F5B955"/>
<path d="M64.3413 25.3842C65.2767 25.3842 66.0352 24.6258 66.0352 23.6903V17.5714C66.0352 16.6359 65.2767 15.8776 64.3413 15.8776C63.4058 15.8776 62.6475 16.6359 62.6475 17.5714V23.6903C62.6475 24.626 63.4058 25.3842 64.3413 25.3842Z" fill="#F5B955"/>
<path d="M64.3413 13.5065C65.2767 13.5065 66.0352 12.7482 66.0352 11.8127V10.2743C66.0352 9.33894 65.2767 8.58044 64.3413 8.58044C63.4058 8.58044 62.6475 9.33894 62.6475 10.2743V11.8127C62.6475 12.7482 63.4058 13.5065 64.3413 13.5065Z" fill="#F5B955"/>
<path d="M11.8589 28.4648C12.7943 28.4648 13.5527 27.7063 13.5527 26.771V20.6521C13.5527 19.7168 12.7943 18.9583 11.8589 18.9583C10.9235 18.9583 10.165 19.7168 10.165 20.6521V26.771C10.1652 27.7065 10.9235 28.4648 11.8589 28.4648Z" fill="#F5B955"/>
<path d="M11.8589 16.5871C12.7943 16.5871 13.5527 15.8286 13.5527 14.8933V13.3549C13.5527 12.4193 12.7943 11.661 11.8589 11.661C10.9235 11.661 10.165 12.4193 10.165 13.3549V14.8933C10.1652 15.8289 10.9235 16.5871 11.8589 16.5871Z" fill="#F5B955"/>
<path d="M18.6342 25.4055C19.5695 25.4055 20.328 24.647 20.328 23.7117V17.5928C20.328 16.6574 19.5695 15.8989 18.6342 15.8989C17.6988 15.8989 16.9403 16.6574 16.9403 17.5928V23.7117C16.9403 24.647 17.6988 25.4055 18.6342 25.4055Z" fill="#F5B955"/>
<path d="M18.6342 13.5278C19.5695 13.5278 20.328 12.7693 20.328 11.8339V10.2955C20.328 9.36002 19.5695 8.60168 18.6342 8.60168C17.6988 8.60168 16.9403 9.36002 16.9403 10.2955V11.8339C16.9403 12.7693 17.6988 13.5278 18.6342 13.5278Z" fill="#F5B955"/>
<path d="M5.08375 25.3842C6.01927 25.3842 6.7776 24.6258 6.7776 23.6903V17.5714C6.7776 16.6359 6.0191 15.8776 5.08375 15.8776C4.14839 15.8776 3.38989 16.6359 3.38989 17.5714V23.6903C3.38989 24.626 4.14839 25.3842 5.08375 25.3842Z" fill="#F5B955"/>
<path d="M5.08375 13.5065C6.01927 13.5065 6.7776 12.7482 6.7776 11.8127V10.2743C6.7776 9.33894 6.0191 8.58044 5.08375 8.58044C4.14839 8.58044 3.38989 9.33894 3.38989 10.2743V11.8127C3.38989 12.7482 4.14839 13.5065 5.08375 13.5065Z" fill="#F5B955"/>
</svg>
