<svg width="23" height="23" viewBox="0 0 23 23" fill="none" xmlns="http://www.w3.org/2000/svg">
<path d="M11.5 2.06942C14.5631 2.06942 14.9297 2.06943 16.1405 2.13696C16.8689 2.14331 17.5905 2.27717 18.2726 2.53251C18.7664 2.72426 19.2149 3.01674 19.5894 3.39129C19.964 3.76585 20.2564 4.21428 20.4482 4.70806C20.7035 5.39022 20.8374 6.11184 20.8437 6.84019C20.9016 8.05097 20.9113 8.41758 20.9113 11.4807C20.9113 14.5438 20.9113 14.9104 20.8437 16.1212C20.8374 16.8496 20.7035 17.5712 20.4482 18.2533C20.2564 18.7471 19.964 19.1956 19.5894 19.5701C19.2149 19.9447 18.7664 20.2371 18.2726 20.4289C17.5905 20.6842 16.8689 20.8181 16.1405 20.8245C14.9297 20.8823 14.5679 20.892 11.5 20.892C8.43205 20.892 8.07027 20.892 6.85949 20.8245C6.13113 20.8181 5.40953 20.6842 4.72737 20.4289C4.23359 20.2371 3.78515 19.9447 3.41059 19.5701C3.03604 19.1956 2.74358 18.7471 2.55182 18.2533C2.29648 17.5712 2.16261 16.8496 2.15626 16.1212C2.09838 14.9104 2.08872 14.5438 2.08872 11.4807C2.08872 8.41758 2.08873 8.05097 2.15626 6.84019C2.16261 6.11184 2.29648 5.39022 2.55182 4.70806C2.74358 4.21428 3.03604 3.76585 3.41059 3.39129C3.78515 3.01674 4.23359 2.72426 4.72737 2.53251C5.40953 2.27717 6.13113 2.14331 6.85949 2.13696C8.07027 2.07908 8.43687 2.06942 11.5 2.06942ZM11.5 0C8.38381 0 7.99308 7.06586e-06 6.76783 0.0675406C5.81487 0.0872419 4.87212 0.268279 3.97965 0.602978C3.21057 0.895948 2.51215 1.34825 1.93021 1.93019C1.34826 2.51214 0.895948 3.21057 0.602978 3.97965C0.268279 4.87213 0.0872418 5.81486 0.0675405 6.76782C0.0144785 7.99307 0 8.3838 0 11.5C0 14.6162 7.06586e-06 15.0069 0.0675405 16.2322C0.0872418 17.1851 0.268279 18.1279 0.602978 19.0203C0.895948 19.7894 1.34826 20.4878 1.93021 21.0698C2.51215 21.6517 3.21057 22.1041 3.97965 22.397C4.87212 22.7317 5.81487 22.9128 6.76783 22.9325C7.99308 22.9855 8.38381 23 11.5 23C14.6162 23 15.0069 23 16.2322 22.9325C17.1851 22.9128 18.1279 22.7317 19.0203 22.397C19.7894 22.1041 20.4879 21.6517 21.0698 21.0698C21.6517 20.4878 22.1041 19.7894 22.397 19.0203C22.7317 18.1279 22.9128 17.1851 22.9325 16.2322C22.9855 15.0069 23 14.6162 23 11.5C23 8.3838 23 7.99307 22.9325 6.76782C22.9128 5.81486 22.7317 4.87213 22.397 3.97965C22.1041 3.21057 21.6517 2.51214 21.0698 1.93019C20.4879 1.34825 19.7894 0.895948 19.0203 0.602978C18.1279 0.268279 17.1851 0.0872419 16.2322 0.0675406C15.0069 0.0144785 14.6162 0 11.5 0Z" fill="black"/>
<path d="M12 6C10.8133 6 9.65327 6.3519 8.66658 7.01119C7.67988 7.67047 6.91085 8.60754 6.45672 9.7039C6.00259 10.8003 5.88378 12.0067 6.11529 13.1705C6.3468 14.3344 6.91823 15.4035 7.75734 16.2426C8.59646 17.0818 9.66556 17.6532 10.8294 17.8847C11.9933 18.1162 13.1997 17.9974 14.2961 17.5433C15.3925 17.0891 16.3296 16.3201 16.9888 15.3334C17.6481 14.3467 18 13.1867 18 12C18 10.4087 17.3679 8.88258 16.2427 7.75736C15.1174 6.63214 13.5913 6 12 6ZM12 15.8936C11.2299 15.8936 10.4771 15.6653 9.83681 15.2374C9.1965 14.8096 8.69747 14.2015 8.40277 13.49C8.10807 12.7786 8.03095 11.9957 8.18118 11.2404C8.33142 10.4851 8.70226 9.79133 9.24679 9.24679C9.79133 8.70226 10.4851 8.33144 11.2404 8.1812C11.9957 8.03097 12.7786 8.10807 13.49 8.40277C14.2015 8.69747 14.8096 9.19652 15.2374 9.83682C15.6653 10.4771 15.8936 11.2299 15.8936 12C15.8936 13.0327 15.4834 14.023 14.7532 14.7532C14.023 15.4834 13.0327 15.8936 12 15.8936Z" fill="black"/>
<path d="M17.5 7C18.3284 7 19 6.32842 19 5.49999C19 4.67156 18.3284 4 17.5 4C16.6716 4 16 4.67156 16 5.49999C16 6.32842 16.6716 7 17.5 7Z" fill="black"/>
</svg>
