<svg width="88" height="95" viewBox="0 0 88 95" fill="none" xmlns="http://www.w3.org/2000/svg">
<path d="M83.9072 27.6614C85.7703 28.2358 86.3407 28.7556 86.4924 29.1416C86.5228 29.2176 86.7928 29.947 86.7928 29.947C86.9203 31.0412 87.0477 32.1323 87.1782 33.2265C87.1509 47.2078 87.3087 56.9126 87.8852 60.5356C87.8852 60.5356 88.4708 64.2224 86.9961 67.0369C86.8019 67.4107 86.4955 67.9943 85.8552 68.438C85.2302 68.8727 84.2501 69.1979 84.2501 69.1979C76.4125 69.8331 68.5719 70.4684 60.7344 71.1036C60.7253 69.9547 60.6191 69.0368 60.5341 68.438C60.3005 66.8302 59.9788 66.0551 59.2506 62.8942C59.0594 62.0674 59.0443 61.9611 58.9532 61.572C57.7395 56.3807 54.9814 52.162 55.5427 51.7943C55.6762 51.7061 56.01 51.8307 56.01 51.8368C56.01 51.8398 55.922 51.8338 55.5427 51.7943C56.4044 51.8459 58.9168 52.0283 59.6542 52.5389C59.6936 52.5663 59.7331 52.5936 59.7331 52.5936C61.0712 53.7456 61.8965 54.7759 62.4063 55.5114C63.2862 56.7819 63.7262 57.4172 63.8354 57.6755C64.0873 58.2682 64.239 58.867 64.6972 58.9946C65.0764 59.101 65.4497 58.8487 65.5862 58.7606C66.2386 58.3411 67.513 57.7758 70.2104 57.0768" fill="#5A9927"/>
<path d="M58.4495 81.8846C59.3871 81.3224 59.2628 81.6293 61.3048 80.6415C61.7084 80.447 62.2333 80.1826 62.9434 80.2069C62.9434 80.2069 63.6109 80.2312 64.151 80.5291C65.5407 81.295 65.8108 84.7356 64.7943 87.4711C64.063 89.4436 62.819 90.6229 61.8025 91.5864C60.1822 93.1244 59.1232 94.1304 57.6212 94.0909C55.5063 94.0331 53.5006 91.936 53.2973 89.8084C53.185 88.626 53.6584 87.772 54.5474 86.1702C55.0875 85.2097 56.2224 83.222 58.4495 81.8846Z" fill="#E6CBA6"/>
<path d="M41.585 0C41.585 0 0.0030343 0 0 0C0 0 3.46819 3.57434 6.13838 5.99979C12.9746 12.2123 13.7241 13.3369 14.2582 14.2974C14.6192 14.9508 14.777 15.3399 16.9617 24.1632C18.6063 30.8074 18.6973 31.3089 19.2799 32.78C20.615 36.1476 22.2596 38.8527 24.3017 41.19C24.5748 41.503 24.7841 41.728 24.9662 41.9225C28.3373 45.5363 31.1288 47.0378 34.5394 49.5088C38.0622 52.0619 39.8251 53.3354 41.051 54.9676C41.9643 56.1834 43.2144 58.5936 45.7117 63.4141C46.9102 65.724 47.0195 66.0553 47.6536 67.034C48.13 67.7696 48.7702 68.6692 49.4256 70.1008C49.4742 70.2041 49.7078 70.7147 49.9506 71.3743C51.0308 74.2678 51.7165 78.3315 51.759 78.5807C52.818 84.9513 52.7907 85.4467 53.3217 85.6625C54.8874 86.3008 58.04 83.1793 59.6118 79.8755C59.9304 79.2068 61.1441 76.5139 60.8437 71.4108C60.3916 63.7515 56.708 53.6455 55.6793 52.0224C55.5792 51.8644 55.1878 51.2838 55.3425 50.6729C55.47 50.1714 55.9039 49.8857 56.0738 49.7733C58.1766 48.3691 60.0912 46.7035 62.112 45.1868C62.112 45.1868 62.1909 45.126 65.8412 42.1231L66.2296 42.041L70.3016 57.0617C70.3016 57.0617 71.6761 59.0586 71.1785 60.8519C71.1087 61.1042 71.0238 61.2896 70.9783 61.3807C68.5356 66.5568 65.4133 71.5658 64.8641 77.6051C64.8247 78.0549 64.8095 78.4348 64.7822 79.1947C64.67 82.2219 65.0098 84.62 65.6895 89.2916C65.7714 89.8447 65.914 90.7474 66.5785 91.5772C67.1793 92.3249 68.2686 93.0939 68.9878 92.7838C69.4914 92.568 69.6341 91.9024 69.7645 91.3553C70.5443 88.1001 71.7368 85.3951 72.6653 83.8905C72.905 83.5015 73.2965 83.0152 74.0702 82.0578C76.8921 78.5625 82.1839 72.4533 83.5949 70.1585C83.7617 69.888 84.2745 69.3318 84.141 69.1586C83.9316 68.8881 82.3144 69.6722 82.3568 69.8029C82.3811 69.8759 86.2924 68.2741 86.2924 68.2741C86.2924 68.2741 87.1693 66.5416 87.5364 65.487C88.2161 63.5357 87.5546 62.7515 87.4545 58.1742C87.4454 57.8003 87.4393 56.9219 87.3119 55.7609C87.0084 53.0467 86.8051 52.9342 86.5047 49.9769C86.2347 47.3083 86.3166 46.5637 86.1406 44.1382C85.9191 41.1049 85.4033 40.1748 84.9664 35.564C84.7722 33.5246 84.4535 28.9959 83.7951 26.768C83.7526 26.6191 83.6707 26.3486 83.7951 26.768C83.786 26.7559 82.4843 25.0842 82.4752 25.0751C77.1318 22.3882 71.7884 19.6984 66.4481 17.0115C58.4345 12.9783 50.4179 8.948 50.4179 8.948C50.4179 8.948 47.8175 8.15168 46.1759 7.05142C42.8078 4.79618 41.585 0 41.585 0Z" fill="#C6E6B0"/>
</svg>
