<svg width="32" height="31" viewBox="0 0 32 31" fill="none" xmlns="http://www.w3.org/2000/svg">
<path d="M21.3944 3.47472C16.6591 -1.15824 8.95202 -1.15824 4.21672 3.47472C-0.517552 8.10869 -0.517552 15.6482 4.21672 20.2821C8.43363 24.4069 15.0012 24.8488 19.7335 21.6279C19.833 22.0889 20.0609 22.5288 20.4274 22.8874L27.3235 29.6344C28.3284 30.6157 29.9524 30.6157 30.9522 29.6344C31.9561 28.6522 31.9561 27.0634 30.9522 26.0842L24.0561 19.3351C23.6917 18.9795 23.2411 18.7556 22.7699 18.6581C26.064 14.0272 25.6123 7.60251 21.3944 3.47472ZM19.2171 18.152C15.6818 21.6109 9.92823 21.6109 6.39395 18.152C2.8607 14.6931 2.8607 9.06481 6.39395 5.60591C9.92823 2.14801 15.6818 2.14801 19.2171 5.60591C22.7524 9.06481 22.7524 14.6931 19.2171 18.152Z" fill="#C6E6B0"/>
</svg>
