<svg width="83" height="83" viewBox="0 0 83 83" fill="none" xmlns="http://www.w3.org/2000/svg">
<path d="M79.9199 6.18994H8.99994C7.96994 6.18994 7.12994 7.01994 7.12994 8.05994V72.2199L75.8899 76.7699C76.0999 76.7999 76.3199 76.8099 76.5299 76.8099C76.5599 76.8099 76.5999 76.8099 76.6299 76.8099C79.4799 76.7499 81.7799 74.4299 81.7799 71.5599V8.04994C81.7799 7.01994 80.9499 6.18994 79.9199 6.18994Z" fill="#F5B955"/>
<path d="M78.6299 74.7899C77.1599 74.7899 75.8799 74.0599 75.1399 72.9599C74.7599 72.5699 74.4899 70.9899 74.4899 70.8199C74.4899 70.6499 74.5199 38.9099 74.5199 38.9099C74.5199 37.6199 74.0199 36.3999 73.0999 35.4899L62.3499 24.7499C61.4499 23.8499 60.1999 23.3299 58.9199 23.3299H26.0699C23.5999 23.3299 21.5899 21.3199 21.5899 18.8499V6.18994H8.99994C7.96994 6.18994 7.12994 7.02994 7.12994 8.05994V35.9199H19.1499V73.0199L75.8799 76.7799C76.0899 76.8099 76.3099 76.8199 76.5199 76.8199C76.5499 76.8199 76.59 76.8199 76.6199 76.8199C78.63 76.7799 80.3599 75.6099 81.2099 73.9299C80.5199 74.4699 79.6099 74.7899 78.6299 74.7899Z" fill="#F5B955"/>
<path d="M76.53 76.8099H6.46997C3.56997 76.8099 1.21997 74.4599 1.21997 71.5599V28.2199C1.21997 27.3099 1.95997 26.5699 2.86997 26.5699H7.12997H58.92C59.34 26.5699 59.75 26.7399 60.05 27.0399L70.81 37.7999C71.11 38.0999 71.28 38.4999 71.28 38.9299V71.4699C71.28 74.3599 73.63 76.8099 76.53 76.8099Z" fill="#F5B955"/>
<path d="M71.29 71.8099H19.31C16.41 71.8099 14.06 69.4599 14.06 66.5599V26.5699H7.12997H2.86997C1.95997 26.5699 1.21997 27.3099 1.21997 28.2199V71.5599C1.21997 74.4599 3.56997 76.8099 6.46997 76.8099H76.53C73.75 76.8099 71.47 74.5599 71.29 71.8099Z" fill="#F5B955"/>
<path d="M10.39 76.8099C8.89995 76.8099 7.69995 75.5999 7.69995 74.1199V34.3699C7.69995 33.6399 8.28995 33.0499 9.01995 33.0499H61.59L64.6999 38.3499L64.8 69.5699C64.8 73.5199 67.96 76.7399 71.9 76.8099H10.39Z" fill="#AFFFF5"/>
<path d="M10.39 76.8099H71.89C68.73 76.7499 66.07 74.6699 65.1399 71.8099H19.3C16.4 71.8099 14.05 69.4599 14.05 66.5599V33.0599H9.01995C8.28995 33.0599 7.69995 33.6499 7.69995 34.3799V74.1299C7.69995 75.6099 8.90995 76.8099 10.39 76.8099Z" fill="#AFFFF5"/>
<path d="M58.92 26.5699C59.34 26.5699 59.75 26.7399 60.05 27.0399L70.81 37.7999C71.11 38.0999 71.28 38.4999 71.28 38.9299V39.6799H71.12H60.1C59.45 39.6799 58.92 39.1499 58.92 38.5099V26.7299V26.5699Z" fill="#F5B955"/>
<path d="M45.2799 48.4199H40.25C38.32 48.4199 36.7599 46.8599 36.7599 44.9299C36.7599 42.9999 38.32 41.4399 40.25 41.4399H45.2799C47.2099 41.4399 48.77 42.9999 48.77 44.9299C48.78 46.8499 47.2099 48.4199 45.2799 48.4199Z" fill="#A5DC69"/>
<path d="M14.74 49.2799V50.6299C14.74 52.0699 13.58 53.2299 12.14 53.2299C12.14 54.0199 11.82 54.7299 11.31 55.2399C10.79 55.7599 10.08 56.0699 9.29995 56.0699H7.69995V46.6699H12.14C13.58 46.6799 14.74 47.8499 14.74 49.2799Z" fill="#A5DC69"/>
<path d="M64.7299 50.1599L64.7699 63.4999H63.5699C60.7999 63.4999 58.5499 61.2499 58.5499 58.4799V57.8399C58.5499 57.6899 58.4899 57.5499 58.3899 57.4499C58.2899 57.3499 58.1499 57.2899 57.9999 57.2899C57.0199 57.2899 56.1199 56.8899 55.4799 56.2499C54.8299 55.6099 54.4399 54.7099 54.4399 53.7299C54.4399 51.7599 56.0399 50.1699 57.9999 50.1699H64.7299V50.1599Z" fill="#A5DC69"/>
<path d="M53.2 76.8099H33.9C33.9 73.8999 36.26 71.5499 39.17 71.5499H47.94C50.84 71.5499 53.2 73.8999 53.2 76.8099Z" fill="#A5DC69"/>
<path d="M23.83 50.1599C26.42 50.1599 28.51 48.0599 28.51 45.4799C28.51 42.8899 26.41 40.7999 23.83 40.7999C21.25 40.7999 19.15 42.8999 19.15 45.4799C19.15 48.0699 21.25 50.1599 23.83 50.1599Z" fill="#EE6161"/>
<path d="M41.24 25.35H8.73997C8.69997 25.35 8.64997 25.36 8.60997 25.37C8.10997 25.39 7.59997 25.37 7.09997 25.35C7.09997 25.63 7.08997 25.9 7.03997 26.19C7.04997 26.42 7.04997 26.64 7.04997 26.87C7.03997 27.18 7.03997 27.48 7.02997 27.79H41.25C41.92 27.79 42.47 27.25 42.47 26.57C42.47 25.89 41.91 25.35 41.24 25.35Z" fill="#5A9927"/>
<path d="M70.06 71.45C70.06 72.92 70.57 74.37 71.47 75.53C71.46 75.53 71.45 75.53 71.44 75.52C71.51 75.6 71.57 75.7 71.64 75.79C71.94 76.01 72.23 76.24 72.51 76.48C72.74 76.55 72.97 76.65 73.2 76.76H76.01C76.01 76.73 76.01 76.7 76.01 76.67C76 76.29 76.01 75.92 76.01 75.54C75.17 75.42 74.39 75.05 73.76 74.44C72.96 73.65 72.5 72.57 72.5 71.45V38.92C72.5 38.17 72.21 37.46 71.68 36.93L60.91 26.17C60.38 25.64 59.67 25.35 58.92 25.35H46.56C45.89 25.35 45.34 25.89 45.34 26.57C45.34 27.25 45.88 27.79 46.56 27.79H57.7V38.5C57.7 39.82 58.77 40.89 60.09 40.89H70.05V71.45H70.06ZM60.14 38.45V28.84L69.75 38.45H60.14Z" fill="#5A9927"/>
<path d="M23.83 54.45C24.5 54.45 25.05 53.91 25.05 53.23V51.25C27.72 50.69 29.73 48.31 29.73 45.48C29.73 42.23 27.08 39.58 23.83 39.58C20.58 39.58 17.93 42.23 17.93 45.48C17.93 48.31 19.94 50.69 22.61 51.25V53.23C22.62 53.91 23.16 54.45 23.83 54.45ZM20.37 45.48C20.37 43.57 21.92 42.02 23.83 42.02C25.74 42.02 27.29 43.57 27.29 45.48C27.29 47.39 25.74 48.94 23.83 48.94C21.92 48.94 20.37 47.39 20.37 45.48Z" fill="#5A9927"/>
<path d="M21.1399 66.9899C20.6999 66.4799 19.9299 66.4299 19.4199 66.8699L18.3699 67.7799L17.3199 66.8699C16.8099 66.4299 16.0499 66.4799 15.5999 66.9899C15.1599 67.4999 15.2099 68.2599 15.7199 68.7099L16.5099 69.3999L15.7199 70.0899C15.2099 70.5299 15.1599 71.2999 15.5999 71.8099C15.8399 72.0899 16.1799 72.2299 16.5199 72.2299C16.7999 72.2299 17.0899 72.1299 17.3199 71.9299L18.3699 70.9999L19.4199 71.9099C19.6499 72.1099 19.9299 72.2099 20.2199 72.2099C20.5599 72.2099 20.8999 72.0699 21.1399 71.7899C21.5799 71.2799 21.5299 70.5199 21.0199 70.0699L20.2299 69.3799L21.0199 68.6899C21.5199 68.2599 21.5799 67.4899 21.1399 66.9899Z" fill="#5A9927"/>
<path d="M47.78 57.4999C47.78 54.4799 45.32 52.0199 42.3 52.0199H28.52C27.85 52.0199 27.3 52.5599 27.3 53.2399C27.3 53.9199 27.84 54.4599 28.52 54.4599H42.3C43.98 54.4599 45.35 55.8299 45.35 57.5099C45.35 59.1899 43.98 60.5599 42.3 60.5599H20.52C18.67 60.5599 17.16 62.0699 17.16 63.9199C17.16 64.5899 17.7 65.1399 18.38 65.1399C19.05 65.1399 19.6 64.5999 19.6 63.9199C19.6 63.4099 20.02 62.9899 20.53 62.9899H42.3C45.32 62.9899 47.78 60.5299 47.78 57.4999Z" fill="#5A9927"/>
</svg>
