<svg width="17" height="23" viewBox="0 0 17 23" fill="none" xmlns="http://www.w3.org/2000/svg">
<path d="M17 7.56212C17 12.7436 14.2298 16.6116 10.1898 16.6116C8.82781 16.6116 7.54427 15.8438 7.10565 14.9649C7.10565 14.9649 6.37155 18.0071 6.21919 18.5963C5.67438 20.6679 4.06303 22.7443 3.94298 22.9423C3.92078 22.9676 3.89209 22.9856 3.86036 22.9942C3.82863 23.0029 3.7952 23.0018 3.76404 22.9911C3.73288 22.9804 3.70532 22.9606 3.68465 22.9339C3.66399 22.9073 3.65108 22.875 3.64748 22.8409C3.61517 22.5753 3.18579 19.9435 3.68905 17.8236C3.92914 16.7516 5.30961 10.6285 5.30961 10.6285C5.03644 9.96889 4.89956 9.25636 4.90793 8.53758C4.90793 6.58185 5.99295 5.12351 7.34113 5.12351C8.49078 5.12351 9.04482 6.0217 9.04482 7.10338C9.04482 8.31062 8.31072 10.1166 7.93213 11.7875C7.85656 12.0974 7.85161 12.4215 7.91773 12.7338C7.98384 13.0461 8.11915 13.3378 8.31276 13.5854C8.50636 13.833 8.75284 14.0295 9.03237 14.1593C9.31189 14.289 9.61665 14.3483 9.92208 14.3323C12.3137 14.3323 13.9251 11.1211 13.9251 7.31102C13.9251 4.41365 12.0782 2.25511 8.67546 2.25511C4.84331 2.25511 2.45628 5.2394 2.45628 8.5762C2.41935 9.51736 2.71707 10.4395 3.29196 11.1645C3.3935 11.2514 3.46575 11.37 3.49816 11.503C3.53056 11.6359 3.52141 11.7762 3.47203 11.9034C3.41201 12.1448 3.2735 12.7291 3.21348 12.9609C3.19808 13.0297 3.16844 13.0941 3.12666 13.1495C3.08487 13.205 3.03195 13.2503 2.97164 13.282C2.91132 13.3138 2.84506 13.3313 2.77756 13.3334C2.71006 13.3355 2.64295 13.3221 2.58095 13.2941C0.821848 12.536 0 10.5174 0 8.24784C0 4.49575 3.02419 0 9.02174 0C13.8327 0 17 3.64584 17 7.56212Z" fill="black"/>
</svg>
