<svg width="83" height="83" viewBox="0 0 83 83" fill="none" xmlns="http://www.w3.org/2000/svg">
<g clip-path="url(#clip0)">
<path d="M16.1814 15.817C16.1716 15.9256 12.4107 27.0107 22.0157 36.6156C31.6207 46.2206 42.8127 42.45 42.8127 42.45C42.8127 42.45 46.585 31.2579 36.9784 21.6513C27.3718 12.0447 16.1814 15.817 16.1814 15.817Z" fill="#A5DC69"/>
<path d="M78.9549 18.6766C78.8398 18.6669 67.1647 14.7049 57.0474 24.8222C46.9302 34.9394 50.9035 46.728 50.9035 46.728C50.9035 46.728 62.6921 50.7013 72.8093 40.5841C82.9265 30.4668 78.9549 18.6766 78.9549 18.6766Z" fill="#46C373"/>
<path d="M43.5615 19.0754L43.5632 19.0738C43.5567 19.0365 42.6845 10.3296 47.5219 5.58304C52.3625 0.834855 60.9186 1.67782 60.9559 1.68107L60.9575 1.67945L60.9559 1.68107L60.9575 1.67945L60.9559 1.68107C60.9624 1.75402 62.0323 10.6409 57.2031 15.3809C52.356 20.1388 43.5615 19.0754 43.5615 19.0754Z" fill="#D7FA91"/>
<path d="M43.5 55.9796C38.5686 55.9796 34.2971 58.7922 32.1945 62.8984C30.9544 62.7153 29.685 62.618 28.3946 62.618C16.6012 62.618 6.66064 70.5532 3.62109 81.3773H83.3789C80.3394 70.5549 70.4004 62.618 58.6054 62.618C57.315 62.618 56.0456 62.7136 54.8055 62.8984C52.7013 58.7922 48.4314 55.9796 43.5 55.9796Z" fill="#C88C64"/>
<path d="M65.8937 61.908C66.0655 60.2658 67.4532 58.9803 69.1408 58.9803C70.0356 58.9803 70.7618 58.254 70.7618 57.3592C70.7618 56.4643 70.0356 55.7381 69.1408 55.7381C67.1938 55.7381 65.4447 56.5989 64.2499 57.9573C63.0552 56.5989 61.306 55.7381 59.3591 55.7381C58.4642 55.7381 57.738 56.4643 57.738 57.3592C57.738 58.254 58.4642 58.9803 59.3591 58.9803C60.7532 58.9803 61.9431 59.8573 62.4132 61.0893C62.504 61.2093 62.5607 61.3649 62.5656 61.5529C62.5899 62.558 62.4132 63.555 62.0776 64.4952C63.4037 64.6898 64.699 64.9929 65.9553 65.3982C65.9553 65.3868 65.9537 65.3755 65.9537 65.3625C65.9407 65.3123 65.9261 65.2636 65.9132 65.2134C65.6586 64.1775 65.7105 63.221 65.8224 62.1722C65.8337 62.0749 65.858 61.9858 65.8937 61.908Z" fill="#5A9927"/>
<path d="M17.8591 58.9786C19.5677 58.9786 20.9732 60.2966 21.1143 61.9696C21.1126 61.9696 21.111 61.9712 21.1078 61.9712C21.1143 62.0149 21.1175 62.0587 21.1175 62.1073C21.111 63.2324 21.0365 64.3526 20.876 65.4582C21.9475 65.1048 23.0466 64.8211 24.17 64.62C24.1895 63.4869 24.2803 62.357 24.5121 61.2352C24.5413 61.0974 24.5931 60.9872 24.6645 60.8996C25.1783 59.7681 26.318 58.9786 27.6392 58.9786C28.534 58.9786 29.2603 58.2524 29.2603 57.3575C29.2603 56.4627 28.534 55.7365 27.6392 55.7365C25.6922 55.7365 23.9431 56.5973 22.7483 57.9557C21.5536 56.5973 19.8044 55.7365 17.8575 55.7365C16.9626 55.7365 16.2364 56.4627 16.2364 57.3575C16.2364 58.2524 16.9643 58.9786 17.8591 58.9786Z" fill="#5A9927"/>
<path d="M79.6229 82.9984H79.7072C79.6278 82.8282 79.55 82.6563 79.4754 82.4845C79.5273 82.6547 79.5759 82.8265 79.6229 82.9984Z" fill="#5A9927"/>
<path d="M14.6671 75.8234C14.5423 75.9645 14.4175 76.1071 14.2959 76.2514C14.3235 76.279 14.3478 76.3081 14.3705 76.3389C14.4694 76.1671 14.5682 75.9953 14.6671 75.8234Z" fill="#5A9927"/>
<path d="M80.8483 72.4467C80.8531 72.4629 80.858 72.4775 80.8612 72.4937C80.8823 72.5504 80.9034 72.6056 80.9245 72.6623C80.9796 72.7482 81.0363 72.8357 81.0914 72.9217C81.3151 73.2118 81.5372 73.5036 81.7561 73.7971C81.4659 73.3383 81.1644 72.8876 80.8483 72.4467Z" fill="#5A9927"/>
<path d="M80.4917 18.1595C80.315 17.6326 79.8821 17.2403 79.3553 17.1058L79.3375 17.1009C77.6142 16.5984 75.5376 16.3082 73.4934 16.2855H73.474C72.5872 16.2855 71.8626 16.9988 71.8529 17.8888C71.8431 18.7836 72.5597 19.518 73.4545 19.5277C75.2345 19.5471 76.6691 19.7871 77.6304 20.0075C77.8801 21.1066 78.2351 23.2335 78.0487 25.8678C77.6839 30.9986 75.536 35.5652 71.6632 39.438C67.7904 43.3108 63.2238 45.4603 58.093 45.8235C56.5951 45.9305 55.2626 45.8607 54.1894 45.7359L66.0769 33.8484C66.7108 33.2162 66.7108 32.1884 66.0769 31.5562C65.4431 30.924 64.4169 30.924 63.7847 31.5562L51.8972 43.4437C51.4563 39.6082 51.7448 32.4202 58.1951 25.9699C59.4596 24.7055 60.8181 23.6096 62.2349 22.7131C62.992 22.2349 63.2157 21.2331 62.7375 20.476C62.2592 19.719 61.2574 19.4953 60.5003 19.9735C58.8825 20.998 57.3344 22.2446 55.9013 23.6777C50.3183 29.2607 48.8301 35.3463 48.5642 39.4671C48.3681 42.5164 48.7896 44.9578 49.0943 46.2482L45.121 50.2182V20.7938C45.3075 20.7986 45.5069 20.8002 45.716 20.8002C48.8933 20.8002 54.5801 20.2248 58.3394 16.5352C63.3924 11.5778 62.7164 2.91797 62.5786 1.58705C62.5575 1.20285 62.4003 0.825133 62.1068 0.531715C61.8183 0.243161 61.4471 0.0859146 61.0694 0.0615982C60.2977 -0.00648776 51.5535 -0.640335 46.3903 4.42396C41.741 8.98734 41.7913 16.5125 41.9194 18.7236C41.8951 18.8371 41.8805 18.9538 41.8805 19.0738V25.268C40.9208 23.6777 39.6952 22.0696 38.1276 20.502C32.8088 15.1832 27.0118 13.7647 23.0839 13.5118C18.8155 13.2362 15.7922 14.2364 15.6641 14.2786C15.1389 14.4553 14.745 14.8865 14.6104 15.4134L14.6056 15.4279C13.9993 17.5046 11.4525 28.3432 20.8678 37.7601C26.1867 43.0789 31.9837 44.4974 35.91 44.7503C36.4255 44.7827 36.9232 44.7973 37.3981 44.7973C39.2802 44.7973 40.8316 44.5687 41.8772 44.3531V54.4493C41.8724 54.4493 41.8675 54.4509 41.8626 54.4509C41.8399 55.182 41.6373 55.8856 41.6649 56.6199C41.6762 56.9361 41.6616 57.3494 41.6794 57.7515C42.2744 57.6526 42.8823 57.5991 43.4983 57.5991C44.0576 57.5991 44.6104 57.6412 45.1535 57.7223C45.2669 56.821 45.3658 55.9196 45.2929 55.0053C45.275 54.7865 45.335 54.613 45.4388 54.4866C45.4371 54.4866 45.4339 54.4866 45.4323 54.485C45.4436 54.4752 45.455 54.4655 45.4647 54.4558L45.476 54.4444C45.4858 54.4347 45.4939 54.4266 45.5036 54.4169L51.3866 48.5339C52.4484 48.7836 54.2867 49.1143 56.6032 49.1143C57.1025 49.1143 57.6261 49.0997 58.166 49.064C62.2868 48.7982 68.3724 47.31 73.9554 41.727C79.5385 36.1439 81.0283 30.0583 81.2941 25.9375C81.5827 21.46 80.5354 18.2908 80.4917 18.1595ZM48.6583 6.73888C51.8097 3.64746 56.9745 3.24705 59.4304 3.24543C59.4969 5.76623 59.2294 11.1207 56.0683 14.2219C53.6966 16.5497 50.127 17.289 47.4424 17.4884L52.3252 12.6056C52.959 11.9734 52.959 10.9456 52.3252 10.3134C51.6913 9.67955 50.6652 9.67955 50.0329 10.3134L45.2329 15.1135C45.4955 12.4792 46.3142 9.03922 48.6583 6.73888ZM41.8788 38.3113C41.8594 38.6063 41.8351 38.8852 41.8075 39.151L32.3468 29.6903C31.713 29.0581 30.6868 29.0581 30.0546 29.6903C29.4207 30.3242 29.4207 31.3503 30.0546 31.9826L39.5169 41.4449C35.8532 41.8323 29.1711 41.4773 23.1633 35.4695C15.9008 28.207 16.8605 20.0529 17.5154 17.1431C18.5675 16.908 20.5566 16.5854 23.0109 16.7605C27.8596 17.1058 32.175 19.1386 35.8354 22.7991C39.4958 26.4595 41.5287 30.7748 41.874 35.6235C41.8772 35.6673 41.8788 35.7094 41.8821 35.7532V38.3113H41.8788Z" fill="#5A9927"/>
</g>
<defs>
<clipPath id="clip0">
<rect width="83" height="83" fill="white"/>
</clipPath>
</defs>
</svg>
