<svg width="83" height="83" viewBox="0 0 83 83" fill="none" xmlns="http://www.w3.org/2000/svg">
<path d="M13.6138 51.071H2.62109V77.0086H13.6138V51.071Z" fill="#FF5A5A"/>
<path d="M52.0646 60.42L65.3795 50.2042C67.9199 48.255 71.3177 47.8374 74.2546 49.1132L75.3017 49.5681L56.9206 65.0825L50.2814 65.9762L52.0646 60.42Z" fill="#FFCDAC"/>
<path d="M67.6607 63.4667C67.6607 51.207 57.7222 41.2685 45.4623 41.2685C33.2025 41.2685 23.2642 51.207 23.2642 63.4667L46.9965 65.9763L67.6607 63.4667Z" fill="#F5C86E"/>
<path d="M13.0089 54.1514L24.6482 51.0337C28.7316 49.94 33.0677 50.2947 36.919 52.0373L48.3889 57.2274C50.6124 58.2335 51.4495 60.9616 50.1732 63.0417C49.232 64.5757 47.3924 65.3057 45.6554 64.8343L31.2464 60.9239L46.9967 64.9763H51.0786C54.217 64.9763 57.2585 63.8881 59.6845 61.897L74.981 49.3431C75.9219 48.571 77.1684 48.2804 78.3536 48.5573C81.4633 49.2837 82.4407 53.2282 80.0296 55.3223L60.7903 72.0331C57.0958 75.2421 52.3667 77.0091 47.4731 77.0091H12.6137L13.0089 54.1514Z" fill="#FFCDAC"/>
<path d="M18.598 8.68069C18.5894 8.78622 15.0093 19.4769 24.3591 28.812C33.7089 38.147 44.5216 34.5634 44.5216 34.5634C44.5216 34.5634 48.1109 23.7678 38.7611 14.4327C29.4112 5.09758 18.598 8.68069 18.598 8.68069Z" fill="#46C373"/>
<path d="M44.2391 14.4325C34.8894 23.7676 38.4785 34.5633 38.4785 34.5633C38.4785 34.5633 49.2912 38.1469 58.6411 28.8118C67.9909 19.4767 64.4106 8.78604 64.4021 8.68051C64.4021 8.68067 53.5888 5.09756 44.2391 14.4325Z" fill="#A5DC69"/>
<path d="M47.9746 51.8301H45.7246C45.7402 52.5918 45.9238 53.1777 46.2754 53.5879C46.627 53.998 47.125 54.2031 47.7695 54.2031C48.2227 54.2031 48.6484 54.1367 49.0469 54.0039L49.1641 54.9414C48.6953 55.0586 48.2266 55.1172 47.7578 55.1172C46.7891 55.1172 46.0254 54.832 45.4668 54.2617C44.9121 53.6875 44.623 52.877 44.5996 51.8301H43.5566V51.1035H44.5996V50.3008H43.5566V49.5684H44.5996C44.6387 48.5449 44.9355 47.7539 45.4902 47.1953C46.0488 46.6328 46.8027 46.3516 47.752 46.3516C48.166 46.3516 48.6367 46.4121 49.1641 46.5332L49.0469 47.4824C48.6211 47.3457 48.1934 47.2773 47.7637 47.2773C47.123 47.2773 46.6289 47.4766 46.2812 47.875C45.9375 48.2695 45.7539 48.834 45.7305 49.5684H47.9746V50.3008H45.7246V51.1035H47.9746V51.8301Z" fill="#5A9927"/>
</svg>
