<svg width="225" height="1222" viewBox="0 0 225 1222" fill="none" xmlns="http://www.w3.org/2000/svg">
<g clip-path="url(#clip0)">
<path d="M163.844 140.351C163.844 140.351 154.09 125.36 135.941 92.897C123.851 71.2733 117.22 59.1403 115.067 42.1648C113.312 28.3062 115.261 16.7988 117.113 9.37876C117.565 7.8473 118.006 6.46683 118.437 5.19422C114.755 5.07558 111.073 4.97852 107.392 5.00009C106.66 6.35899 105.949 7.80416 105.325 9.38954C103.043 15.1702 102.515 20.4009 102.612 24.4884C103.075 39.1343 103.527 53.7694 103.99 68.4153C103.818 69.9252 103.452 71.7155 102.709 73.6783C101.632 76.5363 100.115 78.8227 98.7905 80.4836C83.1058 93.8892 67.4319 107.306 51.7473 120.711C44.8146 128.261 37.4836 137.244 30.5509 147.673C24.3933 156.927 19.6459 165.673 15.9643 173.568C15.9643 173.568 14.1665 179.219 13.3161 185.377C8.67635 219.069 33.9849 275.377 33.9957 275.388C33.156 270.481 32.4025 265.466 31.7458 260.343C27.6659 228.452 28.301 198.934 31.3475 172.738C36.7839 164.25 43.0168 155.288 50.1756 146.002C58.3247 135.433 66.5922 125.856 74.6445 117.238C83.8055 107.532 90.4045 101.902 94.8828 98.5051C96.0454 97.6208 104.334 91.3763 104.334 91.3763C119.911 105.3 137.674 124.831 152.164 151.189C155.877 157.941 159.042 164.552 161.755 170.915C164.543 181.667 167.504 198.05 165.857 217.797C164.306 236.487 159.258 250.658 155.684 259.588C137.168 305.92 106.778 340.367 85.1081 373.995C62.2216 409.509 51.9195 439.653 41.4451 470.336C7.15848 570.743 12.724 664.248 15.6844 664.55C17.2668 664.712 21.5513 638.667 24.91 618.272C29.3237 591.45 31.5843 569.816 41.6174 541.775C46.2786 528.747 48.69 522.211 52.3286 521.144C75.0536 514.511 119.696 618.402 140.559 645.461C142.647 648.168 150.42 658.317 154.736 673.739C155.038 674.807 155.253 675.799 155.447 676.802C162.121 710.969 138.481 734.124 95.5717 797.442C81.7817 817.793 81.2542 822.97 68.4653 841.962C49.8849 869.539 47.3013 868.148 35.0507 887.593C12.0673 924.078 5.4576 953.952 3.59525 963.465C0.473392 979.426 -0.796882 996.736 0.559512 996.973C1.19465 997.081 2.00203 994.277 6.65252 980.871C8.71941 974.918 10.8939 969.008 12.9285 963.055C17.4499 949.832 40.0887 897.073 56.8714 899.111C66.2047 900.254 70.037 917.898 75.1612 933.256C95.1303 993.069 128.61 999.551 155.156 1046.07C200.359 1125.28 168.128 1220.21 181.38 1221.96C186.892 1222.68 193.221 1206.33 194.836 1202.15C215.333 1149.12 202.791 1073.38 159.408 1014.41C133.12 978.671 110.438 969.396 95.4748 926.472C92.0946 916.777 85.7648 898.151 86.1738 875.007C87.4549 801.896 154.995 733.908 181.391 743.485C199.616 750.096 207.507 797.054 210.23 813.285C212.502 826.82 213.6 842.393 216.808 842.534C220.037 842.674 223.105 827.122 223.45 825.321C230.07 791.068 214.019 757.991 210.532 751.034C144.348 618.768 111.267 552.625 97.1972 540.136C86.9705 531.055 67.9379 515.73 65.0744 491.863C64.3746 485.985 64.3746 477.325 77.8417 436.989C85.3772 414.416 89.145 403.125 93.9031 392.437C111.536 352.802 148.407 302.652 162.519 308.379C185.094 317.536 147.804 469.074 152.26 469.915C152.282 469.915 152.303 469.926 152.325 469.915C155.307 469.732 158.074 459.681 159.311 454.838C176.665 387.055 177.515 377.575 177.515 377.575C182.833 318.539 172.789 286.141 175.459 242.257C175.75 237.469 176.514 227.212 176.288 212.965C176.051 198.222 174.759 180.201 174.759 180.201C174.759 180.201 174.91 170.031 174.759 168.639C173.231 154.63 166.567 144.524 163.844 140.351Z" fill="#E6CBA6"/>
</g>
<path d="M109.5 4L112.531 7H106.469L109.5 4Z" fill="#E6CBA6"/>
<path d="M117.898 6.99969L112.528 8.14099L114.247 2.89886L117.898 6.99969Z" fill="#E6CBA6"/>
<rect x="110.358" y="2.03247" width="5.04164" height="5.20166" transform="rotate(22.9696 110.358 2.03247)" fill="#E6CBA6"/>
<rect x="112.319" y="0.806152" width="2.50712" height="11" transform="rotate(18.534 112.319 0.806152)" fill="#E6CBA6"/>
<defs>
<clipPath id="clip0">
<rect width="225" height="1217" fill="white" transform="translate(0 5)"/>
</clipPath>
</defs>
</svg>
