<svg width="374" height="14" viewBox="0 0 374 14" fill="none" xmlns="http://www.w3.org/2000/svg">
<path d="M373.359 0.748442C373.059 0.602529 372.759 0.456613 372.453 0.3107C372.112 0.14489 371.701 -0.0341794 371.254 0.00561506C370.971 0.0321447 370.742 0.141576 370.53 0.251011C369.901 0.585948 369.342 0.960681 368.872 1.37189C368.778 1.45148 368.795 1.66372 368.589 1.70351C368.495 1.72009 368.401 1.70351 368.331 1.68361C368.248 1.63387 368.131 1.5576 367.978 1.46806C367.737 1.32215 367.449 1.13643 367.343 1.09664C366.784 0.900984 366.067 0.950733 365.42 1.02037C362.85 1.30557 360.374 1.85605 358.151 2.63204C357.657 2.80449 357.145 2.8675 356.739 2.94377C356.428 3.00346 356.169 3.04326 355.987 3.07311C355.922 3.08969 355.822 3.10295 355.745 3.07642C355.593 3.02336 355.716 2.85424 355.569 2.76138C355.44 2.67848 355.163 2.71164 354.993 2.72159C354.334 2.75475 353.658 2.79123 353.087 2.97693C352.652 3.11953 352.282 3.34835 351.782 3.39146C350.87 3.47436 350.1 2.90066 349.182 2.94377C348.882 2.95703 348.6 3.03663 348.353 3.1328C347.671 3.39809 347.159 3.80266 346.936 4.25366C346.812 4.50238 346.665 4.82406 346.212 4.84396C345.977 4.85722 345.771 4.7909 345.695 4.76437C345.289 4.61846 344.413 4.52229 342.366 4.7478C342.266 4.78427 342.119 4.84065 341.966 4.93018C341.713 5.0761 341.678 5.17558 341.502 5.27838C341.308 5.39113 341.067 5.42429 340.708 5.48066C339.596 5.66306 338.402 5.84546 337.297 5.65643C336.532 5.52379 335.874 5.222 335.092 5.13247C334.486 5.06283 333.857 5.12583 333.268 5.23527C332.78 5.32481 332.663 5.34138 332.38 5.37786C331.845 5.44419 331.045 5.43092 329.91 5.06614C329.557 4.85059 329.328 4.82738 329.187 4.84396C328.84 4.88375 328.834 5.18884 328.187 5.8156C327.987 6.00794 327.781 6.20692 327.482 6.35615C327.182 6.50538 326.764 6.59491 326.382 6.53522C326.099 6.49211 325.87 6.37604 325.658 6.26328C325.317 6.08753 324.235 5.33475 323.788 5.40108C323.582 5.43092 323.265 5.74928 323.094 5.83882C322.665 6.05769 322.577 6.01458 322.318 6.18702C321.918 6.45231 322.036 6.63803 321.665 6.84032C321.412 6.9796 321.095 7.03265 320.854 7.05586C320.695 7.09897 320.471 7.14541 320.242 7.10893C319.936 7.05919 319.777 6.89338 319.701 6.81711C319.325 6.45896 318.484 6.0809 317.872 6.06432C316.978 6.04111 316.396 6.56838 315.626 6.83036C315.12 7.00281 314.496 7.05919 313.92 6.98624C313.585 6.94312 313.267 6.85689 312.938 6.80715C312.156 6.68776 311.327 6.75742 310.527 6.84032C310.468 7.05919 310.103 7.21836 309.727 7.2681C309.345 7.31785 308.951 7.28469 308.562 7.24821C308.098 7.2051 307.622 7.15866 307.233 7.00943C307.033 6.93316 306.869 6.83037 306.651 6.77067C306.351 6.68777 305.998 6.69772 305.669 6.70766C302.076 6.8171 298.535 6.09084 294.948 6.22349C294.807 6.23012 294.66 6.2235 294.519 6.22681C294.378 6.23013 294.231 6.24009 294.107 6.27988C294.019 6.30641 293.942 6.34288 293.86 6.37273C293.789 6.39925 293.707 6.41916 293.631 6.44569C293.513 6.48549 293.431 6.57171 293.29 6.57171C293.29 6.57171 293.237 6.6745 293.119 6.72756C293.007 6.78062 292.854 6.79388 292.707 6.80715C290.796 6.97959 288.902 7.2283 287.056 7.54997C285.891 7.75226 284.674 7.98771 283.474 7.85838C282.951 7.802 282.463 7.67599 281.969 7.57319C280.534 7.27805 278.94 7.16531 277.476 7.40076C276.582 7.54336 275.77 7.80863 274.882 7.96118C273.682 8.16347 272.453 7.77217 271.218 7.89155C270.754 7.93466 270.254 7.72906 269.825 7.83518C269.642 7.88161 269.513 7.97445 269.354 8.04741C268.884 8.26296 268.207 8.25302 267.602 8.22317C266.214 8.15022 264.82 8.02419 263.52 7.73568C262.75 7.56324 261.95 7.33111 261.144 7.42728C260.192 7.54003 259.603 8.05737 258.986 8.47853C258.58 8.75377 258.127 8.966 257.51 8.8831C256.339 8.72392 255.081 8.9229 253.911 8.76704C253.628 8.72724 253.352 8.67086 253.064 8.6377C252.505 8.57469 251.929 8.60785 251.364 8.63438C249.535 8.72392 247.694 8.7206 245.854 8.7206C244.83 8.7206 243.79 8.71729 242.802 8.55811C242.378 8.48847 241.943 8.38898 241.508 8.42878C241.002 8.4752 240.649 8.66754 240.508 8.7405C240.02 8.99585 240.061 9.18155 239.614 9.45679C239.308 9.6425 238.961 9.75527 238.673 9.82491C238.02 9.7818 237.662 9.64913 237.456 9.5397C236.991 9.2943 237.05 9.03896 236.427 8.70071C236.197 8.57469 236.009 8.48846 235.727 8.44535C235.286 8.37903 234.833 8.50505 234.462 8.65428C234.098 8.80682 233.757 8.98921 233.321 9.06548C232.81 9.15502 232.21 9.06881 231.834 8.84994C231.686 8.76372 231.569 8.6576 231.381 8.60123C231.228 8.5548 231.045 8.54816 230.869 8.55147C229.393 8.60122 228.334 9.805 226.911 9.58281C226.141 9.46343 225.37 9.34406 224.6 9.22467C224.247 9.17162 223.882 9.11522 223.524 9.14507C222.853 9.20144 222.33 9.53307 221.659 9.56955C221.024 9.60271 220.46 9.36394 219.848 9.26777C218.866 9.11191 217.813 9.33409 216.978 9.6624C216.267 9.94096 215.614 10.3057 214.767 10.3953C213.679 10.5114 212.632 10.1399 211.762 9.75526C211.315 9.55629 210.868 9.34406 210.362 9.20146C209.85 9.05555 209.104 9.07876 208.533 9.07544C208.092 9.07213 207.698 9.24124 207.416 9.43358C207.133 9.62592 206.922 9.85143 206.616 10.0305C206.081 10.3455 205.299 10.4948 204.528 10.5279C203.758 10.5611 202.987 10.4881 202.223 10.4119C201.5 10.3422 200.7 10.2461 200.282 9.90781C200.17 9.81496 200.082 9.70551 199.912 9.64914C199.77 9.60271 199.594 9.60272 199.429 9.61598C198.083 9.70884 197.059 10.4185 195.713 10.4981C194.548 10.5677 193.466 10.1532 192.296 10.1035C192.019 10.0902 191.731 10.1002 191.467 10.0504C191.214 10.0007 191.002 9.9045 190.779 9.82491C190.29 9.65246 189.72 9.56291 189.161 9.48001C188.667 9.40705 188.138 9.3341 187.667 9.44022C187.262 9.53307 186.985 9.74532 186.732 9.94761C186.415 10.1996 186.103 10.4483 185.786 10.7004C185.697 10.77 185.603 10.843 185.462 10.8728C185.268 10.9159 185.05 10.8695 184.868 10.8131C183.845 10.5047 182.069 9.2744 181.01 9.3971C180.869 9.41368 180.646 9.46675 180.416 9.64914C180.252 9.81163 179.958 10.0471 179.464 10.2228C179.111 10.3455 178.975 10.329 178.211 10.5014C177.558 10.6506 177.546 10.6705 176.823 10.8529C176.358 10.969 175.841 11.0884 175.359 10.9988C175.229 10.9756 175.106 10.9358 174.976 10.9093C174.823 10.8794 174.659 10.8728 174.494 10.8629C173.8 10.8297 173.106 10.7965 172.412 10.7634C172.277 10.7567 172.142 10.7501 172.006 10.77C171.777 10.8065 171.63 10.8927 171.583 10.9193C170.883 11.3172 168.748 11.5327 168.39 11.5394C168.254 11.5427 168.166 11.5195 168.143 11.5128C168.013 11.4764 167.949 11.41 167.931 11.3901C167.831 11.2907 167.713 11.1613 167.172 11.0121C166.425 10.8065 165.978 10.3356 165.214 10.1532C164.249 9.92107 163.156 10.2228 162.279 10.5478C161.403 10.8728 160.45 11.2509 159.409 11.1779C159.157 11.1613 158.91 11.1116 158.704 11.0254C158.38 10.8861 158.221 10.7302 158.157 10.6672C157.569 10.0968 155.275 9.69556 154.105 10.12C153.975 10.1665 153.887 10.2129 153.852 10.2328C153.823 10.2593 153.775 10.2958 153.723 10.3422C153.552 10.4782 153.323 10.7402 153.046 10.78C152.687 10.833 152.305 10.7932 151.935 10.7733C150.029 10.6639 148.053 11.0121 146.607 11.7184C146.295 11.871 145.971 12.0501 145.554 12.0733C145.036 12.1031 144.578 11.8743 144.331 11.619C144.084 11.3636 143.978 11.0685 143.748 10.8065C143.178 10.1499 141.767 9.7652 140.496 9.91443C139.973 9.97744 139.485 10.12 138.967 10.2029C138.356 10.2991 137.709 10.3124 137.074 10.319C134.204 10.3588 131.169 10.9955 128.576 10.2991C128.364 10.2427 128.129 10.2228 127.899 10.2029C127.164 10.1432 126.417 10.0836 125.682 10.1532C124.953 10.2228 124.224 10.4484 123.894 10.8198C123.765 10.9624 123.683 11.1381 123.43 11.2177C123.183 11.2973 122.912 11.2608 122.865 11.2542C122.312 11.1812 122.206 10.8164 121.765 10.5346C121.465 10.3455 120.948 10.1466 119.954 10.0935C116.167 10.0007 114.885 9.91444 114.555 9.8448C114.497 9.83154 114.185 9.76188 113.738 9.7254C113.544 9.70882 113.379 9.70219 113.285 9.70551C112.591 9.72872 112.074 9.78511 111.45 9.96418C111.397 9.95423 111.344 9.9476 111.291 9.93765C108.433 9.47338 105.193 10.6573 102.482 9.9675C101.594 9.742 100.576 9.80168 99.6059 9.8481C95.3069 10.0603 90.955 9.94428 86.7089 9.50322C86.2032 9.45016 84.0096 9.55296 83.4803 8.95936C83.3274 8.78692 83.3215 8.57469 82.9628 8.34919C82.5864 8.11706 82.0748 8.02751 81.6984 7.99104C79.7753 7.62294 78.8108 7.77548 78.2874 7.99104C77.9875 8.11705 77.8052 8.3293 77.3523 8.37241C76.6407 8.44205 75.9938 8.06731 75.935 8.03083C75.394 7.70916 75.5822 7.45381 75.1587 7.17856C74.8882 7.0028 74.3707 6.81711 73.2592 6.82043C72.9769 6.89007 72.5299 6.97295 71.9889 6.96632C70.9186 6.94974 70.2599 6.59159 69.5071 6.34619C68.8014 6.11737 67.6781 5.87531 65.908 5.92836C65.7433 5.95158 65.4846 5.99137 65.1964 6.07096C64.7083 6.20361 64.5377 6.32962 64.1848 6.44237C63.9261 6.52528 63.5262 6.62143 62.9263 6.6347C62.3617 6.66123 61.5502 6.64465 60.8033 6.39262C60.0388 6.13727 59.6977 5.75922 59.5389 5.61994C58.9684 5.12582 57.3041 4.68147 52.37 4.99319C48.7709 5.82556 46.6184 5.6299 45.2893 5.25848C44.2719 4.97329 43.4309 4.49575 41.4373 4.04474C40.2434 3.77613 39.2025 3.64017 38.4791 3.56722C37.9969 3.5639 37.2559 3.58048 36.3973 3.70981C34.8741 3.93863 34.7036 4.25368 33.4274 4.51898C32.1924 4.77432 29.793 5.00976 28.2874 4.37636C27.8523 4.19397 27.5229 3.9519 26.7172 3.77282C26.0703 3.63022 25.4763 3.60369 25.0705 3.60701C24.7412 3.59043 24.1943 3.57385 23.5356 3.63355C21.7713 3.79272 20.7539 4.34322 20.0953 4.58199C16.9489 5.71281 11.2973 3.5639 6.34555 3.70981C5.45752 3.73634 4.64007 3.7662 3.92259 4.08456C2.99928 4.49245 2.9346 5.06283 2.00541 5.17558C1.50553 5.23527 1.16443 5.11256 0.676307 5.26842C0.317569 5.38117 0.117607 5.57021 0.00586876 5.7128C0.00586876 8.4752 0 11.2376 0 14C124.665 14 249.335 14 374 14" fill="#AB7454"/>
</svg>
